<?xml version="1.0" standalone="no"?>
<!DOCTYPE svg PUBLIC "-//W3C//DTD SVG 20010904//EN"
 "http://www.w3.org/TR/2001/REC-SVG-20010904/DTD/svg10.dtd">
<svg version="1.0" xmlns="http://www.w3.org/2000/svg"
 width="600.000000pt" height="600.000000pt" viewBox="0 0 600.000000 600.000000"
 preserveAspectRatio="xMidYMid meet">

<g transform="translate(0.000000,600.000000) scale(0.100000,-0.100000)"
fill="#000000" stroke="none">
<path d="M1546 3674 c-63 -20 -114 -53 -155 -100 -68 -77 -66 -60 -66 -574 l0
-465 27 -46 c35 -60 76 -94 158 -133 152 -72 334 -14 414 133 34 64 46 161 46
404 l0 177 -175 0 -175 0 0 -85 0 -85 80 0 c70 0 80 -2 80 -17 0 -60 -22 -286
-29 -306 -6 -15 -25 -31 -50 -41 -67 -26 -107 -20 -158 27 l-23 20 0 422 0
421 29 28 c55 52 166 45 195 -13 8 -14 19 -52 26 -83 15 -65 20 -68 117 -68
54 0 64 3 74 22 30 56 -24 221 -94 284 -86 78 -220 111 -321 78z"/>
<path d="M2513 3672 c-100 -36 -175 -105 -205 -190 -10 -28 -13 -142 -13 -482
0 -431 1 -446 21 -490 30 -64 77 -107 168 -151 87 -42 121 -47 201 -25 70 18
124 48 167 91 48 49 68 92 80 178 14 103 5 831 -11 881 -17 53 -102 140 -168
172 -72 36 -168 42 -240 16z m159 -193 c68 -31 77 -91 77 -494 -1 -348 -5
-385 -46 -427 -39 -38 -104 -48 -152 -23 -59 30 -61 47 -60 422 0 421 5 477
43 509 30 26 96 33 138 13z"/>
<path d="M623 3670 c-14 -6 -26 -23 -32 -47 -42 -155 -291 -1276 -286 -1282 3
-2 43 -7 89 -9 101 -5 96 -11 127 146 12 60 25 116 30 123 10 16 135 30 206
22 60 -6 50 12 92 -168 12 -49 28 -96 36 -105 19 -18 148 -21 165 -4 12 12
-19 159 -155 744 -105 452 -134 564 -152 578 -19 14 -87 15 -120 2z m80 -495
c33 -147 67 -347 61 -356 -9 -15 -174 -11 -174 4 0 29 84 427 90 427 4 0 14
-34 23 -75z"/>
<path d="M3282 3008 l3 -673 283 -3 282 -2 0 100 0 100 -185 0 -185 0 -2 573
-3 572 -98 3 -97 3 2 -673z"/>
<path d="M5130 3005 l0 -675 285 0 285 0 0 100 0 100 -190 0 -190 0 0 200 0
200 165 0 165 0 0 90 0 90 -165 0 -165 0 2 193 3 192 188 3 187 2 0 90 0 90
-285 0 -285 0 0 -675z"/>
<path d="M4154 3658 c-5 -7 -10 -307 -12 -665 -4 -569 -2 -654 11 -658 8 -4
100 -2 204 3 214 9 247 19 323 94 71 68 80 102 92 331 11 220 3 601 -13 684
-16 80 -62 140 -139 182 l-65 36 -196 3 c-155 3 -199 1 -205 -10z m363 -183
c12 -9 31 -30 40 -48 16 -29 18 -68 18 -427 0 -310 -3 -400 -13 -418 -20 -35
-87 -62 -154 -62 l-58 0 0 491 0 492 72 -7 c40 -4 83 -13 95 -21z"/>
</g>
</svg>
