<?xml version="1.0" standalone="no"?>
<!DOCTYPE svg PUBLIC "-//W3C//DTD SVG 20010904//EN"
 "http://www.w3.org/TR/2001/REC-SVG-20010904/DTD/svg10.dtd">
<svg version="1.0" xmlns="http://www.w3.org/2000/svg"
 width="520.000000pt" height="200.000000pt" viewBox="0 0 520.000000 200.000000"
 preserveAspectRatio="xMidYMid meet">

<g transform="translate(0.000000,200.000000) scale(0.100000,-0.100000)"
fill="#000000" stroke="none">
<path d="M16 1934 c-14 -13 -16 -62 -16 -383 0 -286 3 -371 13 -385 12 -17 44
-18 498 -17 l484 1 51 25 c55 27 96 76 120 142 25 72 12 146 -40 221 l-26 38
21 59 c48 137 -17 268 -150 305 -22 6 -216 10 -488 10 -397 0 -453 -2 -467
-16z m888 -165 c18 -14 26 -30 26 -52 0 -67 -28 -81 -174 -87 l-121 -5 0 -65
0 -65 130 -5 c160 -6 195 -23 195 -94 0 -38 -10 -55 -44 -74 -28 -15 -65 -17
-361 -14 -181 2 -332 5 -335 8 -3 3 -5 37 -5 76 0 90 10 98 120 98 50 0 86 5
93 12 13 13 16 85 6 112 -5 13 -24 16 -105 16 -113 0 -119 5 -119 84 0 78 -11
76 349 76 307 0 319 -1 345 -21z"/>
<path d="M1483 1943 c-10 -4 -13 -89 -13 -378 0 -205 3 -380 6 -389 5 -14 35
-16 225 -16 123 0 241 5 271 11 197 42 317 204 306 414 -7 133 -73 246 -183
310 -78 46 -141 55 -380 54 -121 0 -226 -3 -232 -6z m462 -157 c90 -38 144
-121 145 -220 0 -109 -41 -185 -123 -228 -35 -18 -63 -23 -160 -26 -83 -3
-122 -1 -132 8 -12 10 -15 51 -15 241 0 206 2 229 18 239 26 16 218 6 267 -14z"/>
<path d="M2380 1930 c-19 -19 -20 -32 -20 -378 0 -271 3 -362 13 -375 11 -16
39 -17 322 -15 l310 3 0 65 0 65 -214 3 c-138 1 -219 6 -228 13 -18 16 -18
152 0 168 8 6 80 12 188 13 l174 3 9 38 c6 23 6 48 0 65 l-9 27 -177 5 c-97 3
-180 9 -184 13 -14 14 -17 136 -4 152 10 12 47 15 214 15 239 0 239 0 234 80
l-3 55 -302 3 c-292 2 -303 2 -323 -18z"/>
<path d="M3095 1937 c-3 -6 -4 -183 -3 -392 l3 -380 87 -3 c102 -3 100 -6 96
118 -6 160 1 330 15 330 6 -1 93 -100 192 -221 99 -121 190 -225 203 -230 33
-13 105 -11 125 4 16 11 17 44 15 397 l-3 385 -85 0 -85 0 -5 -235 -5 -235
-100 121 c-55 66 -143 173 -195 237 l-95 117 -78 0 c-53 0 -79 -4 -82 -13z"/>
<path d="M3972 1938 c-9 -9 -12 -103 -12 -389 0 -334 2 -378 16 -383 23 -9
137 -7 152 2 9 7 12 92 10 393 l-3 384 -75 3 c-50 2 -79 -1 -88 -10z"/>
<path d="M4300 1940 c-13 -8 -15 -62 -18 -368 -2 -225 1 -369 7 -385 10 -26
13 -27 86 -27 72 0 76 1 85 26 6 14 10 108 10 209 0 101 4 186 9 189 4 3 39
-41 76 -97 93 -140 163 -227 184 -227 23 0 54 35 141 160 128 184 121 176 137
155 10 -14 13 -66 13 -211 0 -166 2 -193 16 -198 28 -11 130 -6 142 6 9 9 12
109 12 389 0 334 -2 378 -16 383 -29 11 -133 6 -144 -6 -6 -7 -59 -87 -119
-178 -128 -195 -161 -236 -184 -227 -25 9 -94 103 -191 259 -49 79 -94 146
-100 150 -16 11 -128 9 -146 -2z"/>
</g>
</svg>
