<?xml version="1.0" standalone="no"?>
<!DOCTYPE svg PUBLIC "-//W3C//DTD SVG 20010904//EN"
 "http://www.w3.org/TR/2001/REC-SVG-20010904/DTD/svg10.dtd">
<svg version="1.0" xmlns="http://www.w3.org/2000/svg"
 width="200.000000pt" height="200.000000pt" viewBox="0 0 200.000000 200.000000"
 preserveAspectRatio="xMidYMid meet">

<g transform="translate(0.000000,200.000000) scale(0.100000,-0.100000)"
fill="#000000" stroke="none">
<path d="M855 1785 c-162 -29 -312 -112 -432 -238 -123 -130 -193 -276 -215
-453 -55 -431 260 -831 696 -886 508 -64 952 380 888 886 -58 459 -486 774
-937 691z m375 -35 c135 -46 219 -98 321 -200 86 -85 102 -107 147 -200 62
-129 82 -216 82 -356 0 -135 -18 -210 -80 -340 -98 -203 -283 -355 -505 -414
-59 -15 -110 -21 -195 -21 -142 0 -237 23 -365 89 -73 37 -108 64 -186 142
-86 85 -102 107 -147 200 -65 136 -82 207 -82 351 0 228 77 408 242 564 77 74
105 94 194 139 124 62 198 77 364 72 116 -3 158 -8 210 -26z"/>
<path d="M897 1733 c-4 -3 -7 -15 -7 -25 0 -12 7 -18 23 -17 19 1 19 2 3 6
-15 4 -16 7 -5 14 12 7 12 9 -1 9 -13 0 -13 1 0 10 8 5 10 10 4 10 -6 0 -14
-3 -17 -7z"/>
<path d="M1010 1721 c0 -27 19 -36 37 -18 18 18 9 37 -18 37 -12 0 -19 -7 -19
-19z m32 -6 c0 -5 -5 -11 -11 -13 -6 -2 -11 4 -11 13 0 9 5 15 11 13 6 -2 11
-8 11 -13z"/>
<path d="M1096 1714 c-9 -22 -8 -24 9 -18 8 4 13 10 10 14 -3 5 1 11 7 13 8 4
7 6 -3 6 -9 1 -20 -6 -23 -15z"/>
<path d="M820 1710 c0 -5 5 -10 11 -10 6 0 9 -7 6 -14 -4 -10 -1 -13 9 -9 19
7 18 16 -6 31 -12 7 -20 8 -20 2z"/>
<path d="M771 1695 c2 -37 -2 -40 -16 -15 -10 17 -14 20 -15 9 0 -9 6 -22 14
-28 19 -16 36 7 25 34 l-9 20 1 -20z"/>
<path d="M1210 1695 c-6 -8 -9 -19 -5 -25 11 -18 20 -11 20 15 0 29 1 29 -15
10z"/>
<path d="M1280 1660 c-9 -16 -8 -21 5 -26 19 -8 22 -5 27 20 4 27 -18 31 -32
6z"/>
<path d="M663 1654 c-3 -8 -1 -20 5 -26 16 -16 42 -2 42 22 0 24 -38 28 -47 4z
m37 -10 c0 -17 -22 -14 -28 4 -2 7 3 12 12 12 9 0 16 -7 16 -16z"/>
<path d="M623 1628 c1 -7 -3 -12 -10 -11 -7 2 -10 -4 -6 -13 4 -12 8 -12 13
-4 4 7 13 9 19 6 13 -8 14 -4 5 18 -7 19 -25 22 -21 4z"/>
<path d="M1386 1603 c-4 -9 -1 -21 5 -27 9 -8 10 -8 5 2 -4 7 -2 19 4 27 7 9
8 15 2 15 -5 0 -13 -8 -16 -17z"/>
<path d="M1434 1565 c-4 -9 -2 -21 4 -27 15 -15 44 -1 40 19 -4 23 -36 29 -44
8z m36 -10 c0 -8 -7 -15 -15 -15 -16 0 -20 12 -8 23 11 12 23 8 23 -8z"/>
<path d="M1499 1503 c-10 -11 -10 -14 -1 -9 7 4 12 1 12 -8 0 -21 14 -20 31 1
12 15 12 16 -3 10 -12 -4 -15 -2 -11 9 7 19 -11 18 -28 -3z"/>
<path d="M463 1498 c4 -12 2 -15 -9 -11 -19 7 -18 -11 3 -28 11 -10 14 -10 9
-1 -4 7 -1 12 8 12 21 0 20 14 -1 31 -15 12 -16 12 -10 -3z"/>
<path d="M750 1226 c0 -215 -1 -235 -17 -239 -10 -3 16 -5 57 -5 41 0 67 2 57
5 -16 4 -18 18 -17 136 1 73 1 178 1 235 l-1 102 -40 0 -40 0 0 -234z"/>
<path d="M1557 1449 c-14 -8 -16 -14 -6 -25 22 -27 55 -12 43 20 -7 19 -12 19
-37 5z m24 -22 c-13 -13 -26 -3 -16 12 3 6 11 8 17 5 6 -4 6 -10 -1 -17z"/>
<path d="M397 1433 c-15 -14 -7 -43 12 -43 26 0 36 17 21 35 -14 16 -23 19
-33 8z m25 -18 c0 -5 -5 -11 -11 -13 -6 -2 -11 4 -11 13 0 9 5 15 11 13 6 -2
11 -8 11 -13z"/>
<path d="M1607 1383 c-15 -14 -7 -43 12 -43 26 0 36 17 21 35 -14 16 -23 19
-33 8z m25 -18 c0 -5 -5 -11 -11 -13 -6 -2 -11 4 -11 13 0 9 5 15 11 13 6 -2
11 -8 11 -13z"/>
<path d="M344 1348 c-9 -15 27 -41 39 -29 13 13 1 41 -17 41 -8 0 -18 -5 -22
-12z m36 -8 c0 -5 -7 -10 -15 -10 -8 0 -15 5 -15 10 0 6 7 10 15 10 8 0 15 -4
15 -10z"/>
<path d="M1207 1326 c-72 -27 -107 -80 -107 -163 0 -130 110 -209 240 -173 41
11 94 61 109 103 29 75 -1 178 -63 216 -45 28 -128 36 -179 17z m137 -29 c18
-25 21 -42 21 -137 0 -95 -3 -112 -21 -137 -17 -23 -29 -28 -64 -28 -63 0 -84
32 -89 136 -4 97 3 139 30 174 30 37 92 33 123 -8z"/>
<path d="M928 1323 c49 -9 52 -35 52 -402 l0 -340 -22 -4 c-13 -2 5 -5 40 -6
58 -1 62 0 62 22 4 208 -3 653 -9 671 -16 39 -59 66 -105 65 -23 -1 -31 -4
-18 -6z"/>
<path d="M854 1288 l-19 -23 23 19 c21 18 27 26 19 26 -2 0 -12 -10 -23 -22z"/>
<path d="M1640 1300 c-12 -7 -12 -10 -1 -10 7 0 11 -6 7 -15 -6 -17 11 -20 34
-5 12 7 12 10 1 10 -7 0 -11 6 -7 15 6 17 -11 20 -34 5z"/>
<path d="M326 1279 c3 -5 -2 -12 -11 -15 -13 -6 -14 -8 -3 -15 18 -12 31 -11
23 1 -3 6 1 10 9 10 23 0 20 17 -4 23 -11 3 -17 1 -14 -4z"/>
<path d="M287 1203 c-4 -3 -7 -15 -7 -25 0 -23 38 -25 47 -2 8 21 -24 43 -40
27z m33 -24 c0 -5 -7 -9 -15 -9 -15 0 -20 12 -9 23 8 8 24 -1 24 -14z"/>
<path d="M280 1100 c19 -13 30 -13 30 0 0 6 -10 10 -22 10 -19 0 -20 -2 -8
-10z"/>
<path d="M260 995 c0 -9 9 -15 23 -14 20 1 20 2 2 7 l-20 5 20 8 c19 7 19 8
-2 8 -14 1 -23 -5 -23 -14z"/>
<path d="M1708 988 c9 -9 15 -9 24 0 9 9 7 12 -12 12 -19 0 -21 -3 -12 -12z"/>
<path d="M1700 966 c0 -2 9 -6 20 -9 11 -3 20 -1 20 4 0 5 -9 9 -20 9 -11 0
-20 -2 -20 -4z"/>
<path d="M301 928 c-1 -21 -27 -24 -34 -5 -4 9 -6 9 -6 -1 -1 -17 28 -27 41
-14 6 6 8 16 5 24 -4 9 -6 7 -6 -4z"/>
<path d="M705 904 c-66 -34 -95 -82 -95 -156 0 -83 55 -155 135 -174 l30 -7
-27 22 c-34 27 -48 76 -48 169 0 78 17 134 47 151 30 17 -7 13 -42 -5z"/>
<path d="M1167 909 c48 -14 66 -70 61 -199 -3 -93 -5 -103 -27 -121 -19 -16
-20 -19 -6 -19 28 0 78 36 100 72 26 44 27 158 2 206 -24 44 -72 72 -122 71
l-40 -1 32 -9z"/>
<path d="M1697 913 c-15 -14 -7 -43 12 -43 23 0 34 23 18 39 -13 13 -21 14
-30 4z m27 -24 c-8 -14 -24 -10 -24 6 0 9 6 12 15 9 8 -4 12 -10 9 -15z"/>
<path d="M849 894 c-46 -24 -45 -79 2 -104 16 -9 26 -8 45 5 32 21 39 40 26
70 -16 35 -42 46 -73 29z"/>
<path d="M1084 878 l-19 -23 23 19 c21 18 27 26 19 26 -2 0 -12 -10 -23 -22z"/>
<path d="M1670 811 c0 -10 9 -21 20 -24 11 -3 20 -1 20 4 0 5 -7 9 -15 9 -8 0
-15 5 -15 11 0 6 9 9 20 6 11 -3 18 -1 14 4 -10 17 -44 10 -44 -10z"/>
<path d="M287 794 c6 -16 13 -17 33 -4 8 5 11 10 5 11 -5 0 -18 2 -27 4 -11 2
-15 -2 -11 -11z"/>
<path d="M314 735 c-4 -9 -2 -21 4 -27 15 -15 44 -1 40 19 -4 23 -36 29 -44 8z
m34 -6 c-2 -6 -8 -10 -13 -10 -5 0 -11 4 -13 10 -2 6 4 11 13 11 9 0 15 -5 13
-11z"/>
<path d="M1660 739 c-13 -9 -13 -10 2 -6 9 3 19 1 22 -6 2 -7 5 -4 5 6 1 20
-7 21 -29 6z"/>
<path d="M1615 680 c-4 -6 1 -7 11 -3 13 5 15 3 9 -7 -5 -9 -4 -11 3 -6 7 4
12 1 12 -6 0 -10 3 -9 10 2 6 9 5 17 -3 22 -17 11 -35 10 -42 -2z"/>
<path d="M400 632 c0 -7 -5 -10 -12 -6 -6 4 -8 3 -4 -4 3 -5 1 -12 -6 -14 -7
-3 -8 -7 -2 -10 16 -10 44 16 33 33 -6 10 -9 11 -9 1z"/>
<path d="M1554 575 c-4 -9 -2 -21 4 -27 15 -15 44 -1 40 19 -4 23 -36 29 -44
8z m34 -6 c-2 -6 -8 -10 -13 -10 -5 0 -11 4 -13 10 -2 6 4 11 13 11 9 0 15 -5
13 -11z"/>
<path d="M430 564 c0 -8 -4 -12 -10 -9 -5 3 -10 1 -10 -4 0 -6 7 -11 15 -11 8
0 15 7 15 16 0 9 5 12 12 8 7 -4 8 -3 4 4 -10 17 -26 15 -26 -4z"/>
<path d="M471 516 c-10 -12 -8 -13 11 -9 l23 6 -20 -24 -20 -24 22 19 c18 15
20 22 12 33 -14 16 -14 16 -28 -1z"/>
<path d="M1513 518 c4 -22 21 -37 29 -25 7 12 -8 37 -23 37 -5 0 -8 -5 -6 -12z"/>
<path d="M524 455 c-4 -9 -2 -21 4 -27 15 -15 44 -1 40 19 -4 23 -36 29 -44 8z
m28 -10 c0 -5 -5 -11 -11 -13 -6 -2 -11 4 -11 13 0 9 5 15 11 13 6 -2 11 -8
11 -13z"/>
<path d="M1414 438 c-4 -7 -3 -8 4 -4 19 12 35 -3 21 -20 -7 -8 -7 -14 -1 -14
12 0 24 29 16 41 -7 13 -31 11 -40 -3z"/>
<path d="M591 402 c-10 -18 -9 -21 4 -16 10 4 15 0 15 -12 0 -17 1 -16 15 2
17 23 19 38 4 28 -6 -3 -15 -1 -19 6 -6 9 -11 7 -19 -8z"/>
<path d="M1354 399 c-8 -14 21 -43 35 -35 8 5 8 13 1 27 -12 21 -25 25 -36 8z"/>
<path d="M1258 354 c-3 -5 3 -17 14 -26 21 -21 24 -10 5 17 -8 10 -16 14 -19
9z"/>
<path d="M1174 319 c-8 -14 21 -43 35 -35 6 4 11 16 11 27 0 21 -34 27 -46 8z
m36 -14 c0 -8 -4 -15 -10 -15 -5 0 -10 7 -10 15 0 8 5 15 10 15 6 0 10 -7 10
-15z"/>
<path d="M840 298 c0 -19 2 -20 10 -8 13 19 13 30 0 30 -5 0 -10 -10 -10 -22z"/>
<path d="M873 303 c-15 -5 -18 -33 -4 -33 5 0 11 9 14 20 3 11 4 20 4 19 -1 0
-8 -3 -14 -6z"/>
<path d="M924 296 c-8 -21 3 -36 27 -36 15 0 20 6 17 22 -4 27 -35 37 -44 14z
m36 -11 c0 -8 -7 -15 -15 -15 -16 0 -20 12 -8 23 11 12 23 8 23 -8z"/>
<path d="M1021 301 c-17 -11 -7 -41 14 -41 9 0 15 9 15 25 0 27 -6 30 -29 16z
m15 -28 c-10 -10 -19 5 -10 18 6 11 8 11 12 0 2 -7 1 -15 -2 -18z"/>
<path d="M1092 293 c4 -21 48 -29 48 -7 0 8 -4 13 -9 9 -5 -3 -12 -1 -16 5
-10 16 -27 12 -23 -7z"/>
</g>
</svg>
