<?xml version="1.0" standalone="no"?>
<!DOCTYPE svg PUBLIC "-//W3C//DTD SVG 20010904//EN"
 "http://www.w3.org/TR/2001/REC-SVG-20010904/DTD/svg10.dtd">
<svg version="1.0" xmlns="http://www.w3.org/2000/svg"
 width="2400.000000pt" height="677.000000pt" viewBox="0 0 2400.000000 677.000000"
 preserveAspectRatio="xMidYMid meet">

<g transform="translate(0.000000,677.000000) scale(0.100000,-0.100000)"
fill="#000000" stroke="none">
<path d="M18029 6759 c-142 -9 -266 -32 -287 -53 -12 -12 -11 -16 9 -29 13 -9
71 -32 129 -52 202 -71 273 -117 343 -223 91 -137 186 -344 377 -822 77 -191
190 -465 253 -610 63 -146 163 -389 222 -540 447 -1144 591 -1494 741 -1810
43 -91 79 -181 85 -215 16 -83 28 -114 62 -152 38 -43 69 -43 100 -1 43 58
238 527 482 1163 125 326 276 647 336 716 l29 34 28 -32 c51 -59 174 -326 364
-788 107 -261 165 -387 218 -475 21 -36 41 -85 45 -110 19 -121 252 -657 275
-634 25 25 160 330 302 683 80 200 265 628 558 1296 87 197 273 641 530 1260
206 498 319 740 433 934 63 105 122 172 255 289 78 69 89 95 45 107 -40 10
-775 18 -920 10 -68 -4 -123 -11 -123 -16 0 -6 74 -45 163 -88 100 -48 181
-93 207 -117 116 -105 107 -226 -40 -565 -99 -226 -259 -629 -439 -1106 -148
-392 -193 -501 -416 -998 -59 -132 -125 -294 -147 -360 -48 -144 -124 -296
-179 -359 -120 -136 -192 -18 -624 1024 -188 453 -275 694 -275 760 0 16 12
37 29 54 32 31 46 73 60 186 8 62 22 98 73 200 35 69 92 197 127 285 199 497
330 752 464 900 25 28 95 87 156 130 l112 80 -328 6 c-344 7 -441 12 -560 31
-57 8 -76 8 -88 -2 -8 -7 -15 -17 -15 -22 0 -19 50 -58 75 -58 107 0 235 -172
243 -327 5 -85 -27 -209 -84 -331 -46 -98 -74 -178 -74 -211 -1 -87 -173 -432
-262 -525 l-48 -50 -31 30 c-64 61 -197 309 -220 409 -34 152 -99 343 -228
669 -28 71 -51 133 -51 137 0 4 63 58 141 119 77 62 139 113 137 115 -3 3
-524 30 -788 40 -85 3 -224 2 -309 -4 -134 -9 -157 -13 -175 -30 -29 -30 -14
-38 88 -52 225 -29 314 -101 445 -358 154 -302 588 -1331 657 -1557 80 -263
51 -393 -216 -990 -173 -386 -230 -533 -230 -594 0 -60 -68 -101 -110 -67 -85
66 -330 570 -530 1087 -77 200 -107 263 -144 303 -14 15 -28 40 -32 55 -28
131 -56 210 -148 426 -59 137 -150 358 -203 490 -52 133 -122 293 -154 357
-54 105 -61 124 -70 209 -11 95 -24 135 -53 160 -31 25 -50 118 -50 241 0 146
12 171 101 214 109 53 130 87 63 105 -102 27 -614 38 -911 19z"/>
<path d="M6442 6740 c-178 -12 -292 -33 -382 -70 -41 -17 -132 -51 -201 -75
-69 -25 -155 -61 -190 -81 -218 -123 -582 -446 -697 -618 -107 -159 -273 -514
-348 -743 -130 -398 -147 -794 -53 -1279 140 -730 521 -1237 1139 -1514 132
-59 367 -136 475 -155 152 -28 629 -20 1005 16 389 37 617 100 939 262 243
121 301 181 341 352 12 49 39 151 61 225 43 148 52 210 31 218 -19 6 -89 -69
-211 -228 -193 -250 -378 -409 -596 -516 -249 -121 -507 -174 -850 -174 -337
0 -617 59 -860 181 -521 261 -908 880 -1021 1631 -21 145 -30 496 -15 654 15
156 43 325 77 459 177 707 487 1051 1126 1249 374 116 635 132 929 57 199 -50
421 -141 540 -221 165 -111 415 -331 556 -490 93 -105 132 -168 153 -247 13
-51 90 -167 113 -171 15 -3 17 7 17 70 0 40 -9 168 -20 283 -10 116 -22 275
-26 355 -8 173 -12 182 -84 173 -64 -7 -157 21 -330 102 -350 163 -640 255
-895 285 -125 14 -562 20 -723 10z"/>
<path d="M596 6709 c-42 -5 -75 -14 -85 -24 -15 -15 -14 -18 8 -33 13 -10 66
-33 118 -53 154 -61 225 -109 351 -237 l113 -115 -5 -131 c-3 -72 -8 -752 -11
-1511 -7 -1659 -21 -2992 -35 -3285 -19 -377 -51 -532 -151 -731 -61 -122
-130 -186 -299 -276 l-135 -72 -80 78 c-100 98 -189 169 -233 188 -31 13 -36
12 -54 -4 -30 -27 -54 -80 -72 -161 -19 -85 -23 -270 -7 -300 18 -33 82 -45
201 -39 133 8 237 35 369 98 144 68 252 142 370 255 164 156 262 299 359 523
158 367 192 728 212 2274 26 1999 31 2344 40 2657 14 465 24 600 49 647 32 62
81 102 147 119 112 30 147 67 79 86 -148 40 -1024 74 -1249 47z"/>
<path d="M14500 6709 c-232 -8 -317 -16 -325 -29 -7 -12 61 -57 174 -116 151
-77 192 -124 230 -264 52 -192 60 -393 71 -1710 9 -1157 3 -1806 -20 -1938
-16 -96 -47 -166 -96 -221 -64 -71 -102 -91 -192 -103 -42 -5 -88 -16 -101
-25 l-25 -16 25 -10 c15 -6 157 -6 384 -1 500 12 1384 10 1725 -4 408 -18 519
-3 635 86 104 79 284 328 380 525 60 125 75 177 52 177 -23 0 -122 -71 -232
-165 -165 -142 -280 -209 -460 -269 -121 -41 -347 -83 -565 -106 -224 -24
-387 -45 -481 -62 -56 -10 -83 -9 -175 6 -135 22 -221 56 -283 112 -102 92
-111 163 -118 939 -5 549 3 821 27 864 5 11 22 22 37 25 190 42 925 45 1134 6
125 -24 248 -109 296 -205 95 -190 143 -103 158 290 6 178 -7 463 -25 528 -18
62 -43 50 -85 -40 -20 -43 -42 -89 -48 -102 -20 -40 -95 -98 -162 -125 -163
-65 -386 -90 -815 -90 l-335 -1 -55 27 c-140 70 -156 184 -140 995 12 616 21
696 84 759 64 64 180 78 661 77 392 -1 622 -13 722 -39 131 -34 273 -159 328
-289 9 -22 20 -74 25 -116 10 -83 26 -129 47 -129 25 0 36 55 44 235 10 218
23 322 54 443 l23 92 -1182 -2 c-649 0 -1278 -5 -1396 -9z"/>
<path d="M9538 6693 c-124 -15 -17 -104 148 -122 112 -13 187 -66 258 -185 69
-115 82 -236 97 -896 14 -612 6 -2533 -10 -2697 -15 -141 -42 -250 -81 -317
-37 -66 -122 -146 -177 -169 -24 -9 -61 -25 -84 -34 -49 -20 -80 -60 -58 -74
27 -17 109 -15 269 6 295 40 620 47 901 20 201 -19 366 -22 380 -8 17 17 -50
47 -193 87 -216 61 -294 94 -334 138 -54 58 -103 195 -136 378 -30 168 -34
614 -10 1112 10 208 20 379 22 382 3 2 91 9 195 15 258 15 420 -1 518 -50 111
-57 289 -292 489 -645 39 -70 93 -156 120 -191 79 -104 120 -169 223 -348 165
-287 277 -438 448 -602 213 -203 446 -313 664 -313 146 0 243 37 243 94 0 30
-22 49 -92 79 -74 33 -125 69 -218 152 -178 159 -319 336 -617 775 -339 498
-636 959 -721 1118 -41 77 -43 86 -31 109 17 32 107 110 234 203 133 98 210
177 272 280 29 47 65 103 82 124 17 21 38 62 46 90 45 149 82 489 73 664 -5
81 -10 102 -41 165 -49 98 -239 349 -326 429 -144 134 -298 185 -651 219 -112
11 -1823 22 -1902 12z m1487 -153 c421 -68 745 -247 862 -475 127 -247 186
-663 127 -904 -38 -159 -146 -322 -284 -434 -131 -105 -186 -126 -430 -161
-157 -23 -414 -38 -510 -31 -75 6 -245 37 -255 47 -19 19 -28 289 -32 1018
l-5 815 84 52 c130 80 162 93 248 93 41 0 129 -9 195 -20z"/>
<path d="M2814 2707 c-143 -144 -224 -238 -224 -262 0 -17 78 -88 190 -172
107 -80 154 -125 169 -165 6 -16 15 -28 20 -28 38 0 138 132 240 318 l63 112
-133 143 c-72 78 -144 154 -158 169 l-26 28 -141 -143z"/>
</g>
</svg>
