<?xml version="1.0" standalone="no"?>
<!DOCTYPE svg PUBLIC "-//W3C//DTD SVG 20010904//EN"
 "http://www.w3.org/TR/2001/REC-SVG-20010904/DTD/svg10.dtd">
<svg version="1.0" xmlns="http://www.w3.org/2000/svg"
 width="1200.000000pt" height="630.000000pt" viewBox="0 0 1200.000000 630.000000"
 preserveAspectRatio="xMidYMid meet">

<g transform="translate(0.000000,630.000000) scale(0.100000,-0.100000)"
fill="#000000" stroke="none">
<path d="M1712 4109 c-138 -24 -351 -124 -438 -205 -7 -6 -25 -21 -40 -35 -43
-36 -127 -137 -167 -200 -92 -147 -136 -297 -144 -489 -5 -122 -3 -145 21
-243 14 -60 40 -140 57 -179 130 -297 417 -520 730 -569 86 -13 333 -7 394 11
159 45 292 115 407 215 147 127 250 290 305 486 24 82 27 113 28 239 0 179
-23 286 -95 435 -126 260 -345 439 -645 525 -52 15 -344 22 -413 9z m348 -250
c194 -24 313 -90 366 -204 19 -39 24 -67 24 -130 0 -117 -28 -203 -132 -407
-94 -182 -112 -242 -94 -313 8 -32 70 -102 110 -122 37 -19 147 -13 194 11 43
22 40 7 -8 -47 -56 -62 -105 -94 -177 -112 -55 -14 -68 -14 -133 -1 -121 26
-204 91 -243 194 -33 85 -25 126 82 416 124 334 123 494 -3 571 -46 28 -56 30
-150 30 -83 0 -108 -4 -141 -22 -65 -34 -98 -83 -110 -163 -9 -62 32 -254 85
-395 125 -334 129 -355 85 -450 -87 -192 -340 -251 -499 -118 -35 29 -88 94
-82 100 2 3 25 -3 50 -11 76 -26 146 -21 193 13 134 97 127 174 -46 494 -48
90 -76 171 -91 265 -42 262 146 406 535 411 55 0 139 -4 185 -10z"/>
<path d="M3516 3851 c-3 -4 -5 -303 -3 -662 l2 -654 103 -3 102 -3 0 666 0
665 -99 0 c-55 0 -102 -4 -105 -9z"/>
<path d="M4980 3195 l0 -666 98 3 97 3 3 663 2 662 -100 0 -100 0 0 -665z"/>
<path d="M6442 3198 l3 -663 100 0 100 0 3 663 2 662 -105 0 -105 0 2 -662z"/>
<path d="M7163 3450 c-144 -31 -279 -179 -313 -347 -7 -34 -10 -99 -8 -158 4
-84 10 -112 38 -177 72 -171 235 -270 419 -255 122 9 229 61 284 138 29 40 70
146 62 159 -6 9 -139 13 -166 5 -10 -4 -28 -24 -39 -45 -40 -77 -176 -110
-266 -63 -22 12 -55 38 -72 57 -32 37 -68 136 -58 162 4 12 54 14 311 14 l305
0 0 73 c0 92 -32 217 -72 279 -67 106 -163 159 -297 164 -47 2 -105 -1 -128
-6z m201 -188 c40 -24 67 -62 81 -119 l12 -48 -200 -3 c-110 -1 -202 0 -205 3
-12 12 34 103 69 137 60 58 171 71 243 30z"/>
<path d="M8190 3451 c-43 -9 -92 -34 -109 -55 -20 -24 -31 -19 -31 14 l0 30
-100 0 -100 0 0 -455 0 -455 100 0 100 0 0 313 c0 308 0 312 23 350 34 56 71
77 139 77 47 0 62 -5 88 -27 17 -14 37 -38 43 -52 8 -17 13 -137 17 -341 l5
-315 100 0 100 0 5 327 5 327 34 35 c62 63 172 66 223 5 42 -49 48 -105 48
-415 l0 -285 98 3 97 3 0 345 c0 402 -3 419 -85 501 -62 62 -131 84 -236 76
-83 -6 -144 -30 -197 -77 l-37 -32 -35 31 c-59 51 -111 72 -189 76 -39 2 -87
0 -106 -4z"/>
<path d="M9582 3450 c-59 -13 -163 -72 -200 -114 -81 -92 -122 -211 -122 -352
0 -225 109 -391 297 -450 96 -31 171 -31 271 1 180 57 292 232 292 457 0 196
-90 352 -248 429 -54 26 -78 31 -155 34 -51 2 -112 0 -135 -5z m179 -180 c51
-14 114 -85 133 -151 20 -65 21 -200 2 -262 -57 -190 -286 -226 -386 -60 -33
54 -35 63 -38 163 -5 120 5 167 48 232 51 77 141 106 241 78z"/>
<path d="M10660 3447 c-25 -7 -66 -27 -92 -45 -26 -18 -49 -32 -52 -32 -3 0
-6 16 -6 35 l0 35 -100 0 -100 0 0 -455 0 -456 98 3 97 3 5 305 c5 305 5 305
30 342 14 20 43 49 65 63 36 24 48 26 112 23 60 -3 76 -7 98 -28 49 -46 50
-48 55 -385 l5 -320 100 0 100 0 3 330 c2 314 1 332 -19 394 -26 76 -76 136
-144 170 -57 29 -186 38 -255 18z"/>
<path d="M3962 3088 l3 -353 29 -57 c16 -31 43 -71 61 -88 41 -40 150 -80 216
-80 64 0 164 33 211 71 l37 29 3 -38 3 -37 100 0 100 0 3 453 2 452 -105 0
-105 0 0 -299 c0 -235 -3 -306 -14 -332 -54 -130 -254 -147 -318 -27 -22 42
-23 51 -26 351 l-3 307 -100 0 -100 0 3 -352z"/>
<path d="M5424 3426 c-3 -7 -4 -159 -2 -337 3 -314 4 -326 27 -387 28 -75 75
-124 151 -161 47 -22 68 -26 140 -26 93 1 154 21 214 72 l31 26 3 -42 3 -42
97 3 97 3 3 453 2 452 -99 0 -100 0 -3 -308 -3 -309 -28 -40 c-38 -54 -111
-87 -180 -80 -51 4 -88 26 -121 71 -20 26 -21 42 -24 347 l-3 319 -100 0 c-76
0 -101 -3 -105 -14z"/>
</g>
</svg>
