<?xml version="1.0" standalone="no"?>
<!DOCTYPE svg PUBLIC "-//W3C//DTD SVG 20010904//EN"
 "http://www.w3.org/TR/2001/REC-SVG-20010904/DTD/svg10.dtd">
<svg version="1.0" xmlns="http://www.w3.org/2000/svg"
 width="648.000000pt" height="104.000000pt" viewBox="0 0 648.000000 104.000000"
 preserveAspectRatio="xMidYMid meet">

<g transform="translate(0.000000,104.000000) scale(0.100000,-0.100000)"
fill="#000000" stroke="none">
<path d="M5840 970 l0 -70 80 0 80 0 0 70 0 70 -80 0 -80 0 0 -70z"/>
<path d="M1270 595 l0 -416 78 3 77 3 3 413 2 412 -80 0 -80 0 0 -415z"/>
<path d="M1685 990 c-56 -28 -86 -76 -92 -149 l-6 -61 -48 0 -49 0 0 -50 0
-50 50 0 50 0 0 -250 0 -250 80 0 80 0 2 247 3 248 58 3 57 3 0 49 0 49 -57 3
-58 3 2 40 c3 49 23 65 80 65 l43 0 0 60 0 60 -77 0 c-58 0 -88 -5 -118 -20z"/>
<path d="M4370 900 l0 -90 -50 0 -50 0 0 -55 0 -55 49 0 50 0 3 -210 3 -210
31 -31 c25 -25 42 -32 90 -37 33 -4 80 -6 107 -4 l47 3 0 64 0 63 -39 -5 c-31
-4 -43 -1 -60 16 -20 20 -21 31 -21 186 l0 165 60 0 60 0 0 55 0 55 -60 0 -60
0 0 90 0 90 -80 0 -80 0 0 -90z"/>
<path d="M6200 900 l0 -90 -50 0 -50 0 0 -55 0 -55 50 0 50 0 0 -200 c0 -224
5 -246 62 -273 30 -14 102 -21 186 -18 l32 1 0 64 0 65 -35 -6 c-23 -4 -43 0
-60 11 l-25 16 0 170 0 170 60 0 60 0 0 55 0 55 -60 0 -60 0 0 90 0 90 -80 0
-80 0 0 -90z"/>
<path d="M2775 826 c-5 -3 -22 -7 -38 -10 -15 -4 -45 -23 -67 -42 l-40 -36 0
36 0 36 -80 0 -80 0 0 -405 0 -405 85 0 85 0 0 142 0 142 33 -31 c17 -18 45
-37 60 -42 45 -17 147 -13 193 8 207 94 199 499 -12 587 -32 13 -122 26 -139
20z m64 -141 c98 -50 99 -299 1 -350 -66 -34 -152 -8 -187 57 -24 45 -24 190
0 235 37 69 117 94 186 58z"/>
<path d="M3359 817 c-106 -30 -184 -105 -210 -201 -6 -23 -9 -81 -7 -131 5
-103 23 -148 85 -207 60 -58 114 -78 213 -78 73 0 93 4 146 29 107 51 159 141
159 281 0 136 -55 234 -158 284 -64 31 -163 41 -228 23z m157 -136 c46 -28 68
-82 67 -171 0 -126 -48 -190 -143 -190 -90 0 -132 53 -138 177 -4 68 -1 89 16
125 12 24 34 51 49 60 37 23 110 23 149 -1z"/>
<path d="M4119 817 c-48 -18 -75 -38 -105 -78 l-24 -33 0 52 0 52 -80 0 -80 0
0 -300 0 -300 79 0 78 0 5 168 c4 146 7 174 26 213 28 58 65 79 136 79 l57 0
-3 78 c-3 74 -4 77 -28 79 -14 2 -41 -3 -61 -10z"/>
<path d="M5048 820 c-46 -14 -95 -49 -117 -83 l-21 -32 0 53 0 52 -80 0 -80 0
0 -300 0 -300 79 0 79 0 4 168 c4 129 9 177 22 209 24 58 67 83 140 83 l57 0
-3 78 c-3 74 -4 77 -28 79 -14 1 -37 -2 -52 -7z"/>
<path d="M5365 820 c-65 -14 -92 -27 -134 -66 -34 -30 -61 -81 -61 -116 0 -5
36 -8 81 -8 l80 0 11 31 c25 73 169 79 198 8 27 -64 -8 -89 -150 -108 -107
-15 -146 -28 -185 -62 -85 -75 -67 -224 34 -276 69 -36 179 -33 257 7 32 16
60 30 62 30 1 0 2 -11 2 -25 0 -25 1 -25 84 -25 l85 0 -10 32 c-5 18 -9 127
-9 243 0 251 -4 264 -91 307 -60 31 -182 44 -254 28z m182 -382 c-7 -74 -29
-108 -83 -126 -97 -32 -179 31 -139 107 10 21 27 33 53 40 42 11 152 38 166
40 5 0 6 -27 3 -61z"/>
<path d="M5840 510 l0 -300 80 0 80 0 0 300 0 300 -80 0 -80 0 0 -300z"/>
<path d="M142 781 c-88 -30 -124 -79 -126 -168 -1 -93 40 -127 204 -169 58
-15 117 -33 132 -40 49 -25 45 -76 -7 -110 -37 -24 -127 -15 -160 16 -13 12
-25 32 -27 44 -3 19 -10 21 -82 24 l-78 3 6 -38 c11 -58 47 -105 107 -138 51
-28 61 -30 164 -30 97 0 116 3 159 25 70 35 106 84 113 152 11 108 -38 154
-213 199 -125 32 -154 48 -154 85 0 70 161 73 190 3 12 -28 14 -29 86 -29 68
0 74 2 74 20 0 33 -37 97 -70 120 -72 51 -218 66 -318 31z"/>
<path d="M789 782 c-90 -37 -157 -109 -180 -196 -16 -60 -13 -169 7 -228 24
-74 102 -151 174 -172 110 -33 231 -12 301 51 38 34 79 98 79 123 0 6 -26 10
-64 10 -58 0 -66 -3 -100 -34 -43 -42 -101 -54 -160 -34 -48 16 -76 52 -83
106 l-6 42 217 0 c246 0 225 -10 205 95 -19 106 -74 186 -154 228 -57 29 -174
34 -236 9z m156 -116 c36 -15 60 -45 70 -88 l7 -28 -131 0 c-147 0 -151 2
-111 68 34 55 100 75 165 48z"/>
<path d="M1940 500 l0 -70 170 0 170 0 0 70 0 70 -170 0 -170 0 0 -70z"/>
</g>
</svg>
