<svg width="24" height="24" viewBox="0 0 24 24" fill="none" xmlns="http://www.w3.org/2000/svg">
<path d="M11.0632 1.45601C11.3434 1.27835 11.6684 1.18402 12.0002 1.18402C12.332 1.18402 12.6569 1.27835 12.9372 1.45601L21.3202 6.77201C21.5692 6.92991 21.7744 7.14819 21.9165 7.40659C22.0586 7.66498 22.1331 7.9551 22.1331 8.25001C22.1331 8.54491 22.0586 8.83503 21.9165 9.09342C21.7744 9.35182 21.5692 9.5701 21.3202 9.728L12.9372 15.044C12.6569 15.2217 12.332 15.316 12.0002 15.316C11.6684 15.316 11.3434 15.2217 11.0632 15.044L2.68016 9.728C2.4311 9.5701 2.22597 9.35182 2.08384 9.09342C1.94171 8.83503 1.86719 8.54491 1.86719 8.25001C1.86719 7.9551 1.94171 7.66498 2.08384 7.40659C2.22597 7.14819 2.4311 6.92991 2.68016 6.77201L11.0632 1.45601ZM12.1342 2.72301C12.0941 2.69757 12.0476 2.68406 12.0002 2.68406C11.9527 2.68406 11.9062 2.69757 11.8662 2.72301L3.48316 8.039C3.44764 8.06158 3.4184 8.09275 3.39813 8.12963C3.37787 8.16652 3.36725 8.20792 3.36725 8.25001C3.36725 8.29209 3.37787 8.33349 3.39813 8.37038C3.4184 8.40726 3.44764 8.43843 3.48316 8.46101L11.8662 13.777C11.9062 13.8024 11.9527 13.816 12.0002 13.816C12.0476 13.816 12.0941 13.8024 12.1342 13.777L20.5172 8.46101C20.5527 8.43843 20.5819 8.40726 20.6022 8.37038C20.6225 8.33349 20.6331 8.29209 20.6331 8.25001C20.6331 8.20792 20.6225 8.16652 20.6022 8.12963C20.5819 8.09275 20.5527 8.06158 20.5172 8.039L12.1342 2.72301Z" fill="#789096"/>
<path d="M1.86681 12.324C1.91954 12.2408 1.98813 12.1688 2.06868 12.1121C2.14923 12.0554 2.24015 12.0152 2.33626 11.9936C2.43237 11.9721 2.53178 11.9697 2.62882 11.9866C2.72586 12.0035 2.81862 12.0393 2.90181 12.092L11.8658 17.777C11.9059 17.8024 11.9524 17.8159 11.9998 17.8159C12.0473 17.8159 12.0937 17.8024 12.1338 17.777L21.0978 12.092C21.181 12.0392 21.2738 12.0033 21.3708 11.9864C21.4679 11.9695 21.5674 11.9718 21.6635 11.9933C21.7597 12.0148 21.8506 12.055 21.9313 12.1117C22.0119 12.1683 22.0805 12.2403 22.1333 12.3235C22.1861 12.4067 22.222 12.4995 22.2389 12.5965C22.2559 12.6936 22.2535 12.793 22.232 12.8892C22.2105 12.9854 22.1703 13.0763 22.1136 13.1569C22.057 13.2376 21.985 13.3062 21.9018 13.359L12.9368 19.044C12.6566 19.2217 12.3316 19.316 11.9998 19.316C11.668 19.316 11.343 19.2217 11.0628 19.044L2.09781 13.359C1.92996 13.2524 1.81133 13.0834 1.76801 12.8893C1.72469 12.6952 1.76023 12.4919 1.86681 12.324Z" fill="#789096"/>
<path d="M1.86681 16.324C1.91954 16.2408 1.98813 16.1688 2.06868 16.1121C2.14923 16.0555 2.24015 16.0152 2.33626 15.9936C2.43237 15.9721 2.53178 15.9697 2.62882 15.9866C2.72586 16.0035 2.81862 16.0393 2.90181 16.092L11.8658 21.777C11.9059 21.8024 11.9524 21.816 11.9998 21.816C12.0473 21.816 12.0937 21.8024 12.1338 21.777L21.0978 16.092C21.2658 15.9854 21.4693 15.9499 21.6635 15.9933C21.8577 16.0367 22.0267 16.1555 22.1333 16.3235C22.2399 16.4915 22.2754 16.695 22.232 16.8892C22.1886 17.0834 22.0698 17.2524 21.9018 17.359L12.9368 23.044C12.6566 23.2217 12.3316 23.316 11.9998 23.316C11.668 23.316 11.343 23.2217 11.0628 23.044L2.09781 17.359C1.92996 17.2524 1.81133 17.0834 1.76801 16.8893C1.72469 16.6952 1.76023 16.4919 1.86681 16.324Z" fill="#789096"/>
</svg>
