<svg width="24" height="19" viewBox="0 0 24 19" fill="none" xmlns="http://www.w3.org/2000/svg">
<g filter="url(#filter0_d_304_3268)">
<path fill-rule="evenodd" clip-rule="evenodd" d="M3.47 7.53C3.32955 7.38937 3.25066 7.19875 3.25066 7C3.25066 6.80125 3.32955 6.61062 3.47 6.47L9.47 0.469998C9.53866 0.396311 9.62146 0.337209 9.71346 0.296218C9.80546 0.255226 9.90477 0.233185 10.0055 0.231408C10.1062 0.229631 10.2062 0.248155 10.2996 0.285876C10.393 0.323597 10.4778 0.379742 10.549 0.450961C10.6203 0.522179 10.6764 0.607013 10.7141 0.700402C10.7518 0.79379 10.7704 0.893818 10.7686 0.994521C10.7668 1.09522 10.7448 1.19454 10.7038 1.28654C10.6628 1.37854 10.6037 1.46134 10.53 1.53L5.81 6.25L20 6.25C20.1989 6.25 20.3897 6.32902 20.5303 6.46967C20.671 6.61032 20.75 6.80109 20.75 7C20.75 7.19891 20.671 7.38968 20.5303 7.53033C20.3897 7.67098 20.1989 7.75 20 7.75L5.81 7.75L10.53 12.47C10.6037 12.5387 10.6628 12.6215 10.7038 12.7135C10.7448 12.8055 10.7668 12.9048 10.7686 13.0055C10.7704 13.1062 10.7518 13.2062 10.7141 13.2996C10.6764 13.393 10.6203 13.4778 10.549 13.549C10.4778 13.6203 10.393 13.6764 10.2996 13.7141C10.2062 13.7518 10.1062 13.7704 10.0055 13.7686C9.90477 13.7668 9.80546 13.7448 9.71346 13.7038C9.62146 13.6628 9.53866 13.6037 9.47 13.53L3.47 7.53Z" fill="#789096"/>
</g>
<defs>
<filter id="filter0_d_304_3268" x="-0.749344" y="0.231293" width="25.4993" height="21.5374" filterUnits="userSpaceOnUse" color-interpolation-filters="sRGB">
<feFlood flood-opacity="0" result="BackgroundImageFix"/>
<feColorMatrix in="SourceAlpha" type="matrix" values="0 0 0 0 0 0 0 0 0 0 0 0 0 0 0 0 0 0 127 0" result="hardAlpha"/>
<feOffset dy="4"/>
<feGaussianBlur stdDeviation="2"/>
<feComposite in2="hardAlpha" operator="out"/>
<feColorMatrix type="matrix" values="0 0 0 0 0 0 0 0 0 0 0 0 0 0 0 0 0 0 0.25 0"/>
<feBlend mode="normal" in2="BackgroundImageFix" result="effect1_dropShadow_304_3268"/>
<feBlend mode="normal" in="SourceGraphic" in2="effect1_dropShadow_304_3268" result="shape"/>
</filter>
</defs>
</svg>
