<svg width="92" height="91" viewBox="0 0 92 91" fill="none" xmlns="http://www.w3.org/2000/svg">
<circle cx="46.0918" cy="45.5" r="45.5" fill="#E0FFF8"/>
<path d="M50.2745 32.1662C50.684 32.1662 50.8892 32.166 51.0782 32.1877C52.0643 32.3007 52.9492 32.8473 53.4913 33.6789C53.5952 33.8383 53.6859 34.0223 53.8692 34.3888L55.2374 37.1242C55.7608 38.1711 56.8315 38.8332 58.002 38.8332C59.7085 38.8333 61.0919 40.2165 61.0919 41.923V50.2619C61.0919 53.6028 61.0916 55.2737 60.3253 56.4933C59.9256 57.1292 59.3879 57.667 58.752 58.0666C57.5324 58.8329 55.8617 58.8332 52.5206 58.8332H39.6631C36.322 58.8332 34.6514 58.8329 33.4317 58.0666C32.7958 57.667 32.2581 57.1292 31.8585 56.4933C31.0921 55.2737 31.0919 53.6028 31.0919 50.2619V41.923C31.0919 40.2165 32.4752 38.8333 34.1817 38.8332C35.3522 38.8332 36.4229 38.1711 36.9464 37.1242L38.3145 34.3888C38.4978 34.0223 38.5885 33.8383 38.6924 33.6789C39.2345 32.8473 40.1194 32.3007 41.1055 32.1877C41.2945 32.166 41.4998 32.1662 41.9092 32.1662H50.2745ZM46.0919 40.5002C42.41 40.5002 39.4249 43.4853 39.4249 47.1671L39.4337 47.5099C39.6066 50.9184 42.3396 53.6513 45.7481 53.8244L46.0919 53.8332C49.6584 53.833 52.5704 51.0321 52.7491 47.5099L52.7579 47.1671C52.7579 43.6003 49.9571 40.6875 46.4346 40.5089L46.0919 40.5002ZM46.0919 43.8332C47.9327 43.8333 49.4249 45.3263 49.4249 47.1671C49.4245 49.0077 47.9325 50.5 46.0919 50.5002C44.2512 50.5001 42.7582 49.0078 42.7579 47.1671C42.7579 45.3263 44.251 43.8333 46.0919 43.8332Z" fill="#FF8458"/>
</svg>
