<svg width="192" height="172" viewBox="0 0 192 172" fill="none" xmlns="http://www.w3.org/2000/svg">
<circle cx="48.6006" cy="48.6006" r="48.6006" transform="matrix(-1 0 0 1 148.293 34.6989)" fill="#FF8458"/>
<path d="M98.0871 93.5225C96.1181 95.4915 92.9256 95.4915 90.9566 93.5225L80.2288 82.7947C79.5558 82.1217 79.5558 81.0305 80.2288 80.3576C80.9018 79.6846 81.9929 79.6846 82.6659 80.3575L90.9567 88.6473C92.9258 90.616 96.1179 90.616 98.0869 88.6472L116.719 70.0165C117.392 69.3435 118.483 69.3435 119.156 70.0165C119.829 70.6895 119.829 71.7806 119.156 72.4536L98.0871 93.5225Z" fill="white"/>
<circle cx="183.24" cy="49.0392" r="6.68378" fill="#FF8458"/>
<circle cx="187.247" cy="106.025" r="4.00699" fill="#FF8458"/>
<circle cx="115.934" cy="5.80014" r="4.92291" fill="#FF8458"/>
<circle cx="138.282" cy="34.6987" r="1.95315" fill="#FF8458"/>
<circle cx="154.897" cy="116.392" r="1.95315" fill="#FF8458"/>
<circle cx="37.8043" cy="21.4526" r="3.84332" fill="#FF8458"/>
<circle cx="73.8551" cy="25.296" r="1.73894" fill="#FF8458"/>
<circle cx="123.425" cy="167.28" r="3.84332" fill="#FF8458"/>
<circle cx="85.2306" cy="143.987" r="1.82045" fill="#FF8458"/>
<circle cx="176.556" cy="77.2788" r="1.82045" fill="#FF8458"/>
<circle cx="4.58991" cy="79.0994" r="3.84332" fill="#FF8458"/>
<circle cx="33.9609" cy="100.246" r="1.85445" fill="#FF8458"/>
<circle cx="51.0919" cy="158.153" r="3.84332" fill="#FF8458"/>
<circle cx="166.391" cy="147.831" r="3.84332" fill="#FF8458"/>
<circle cx="5.80399" cy="129.271" r="2.62918" fill="#FF8458"/>
</svg>
