<svg width="25" height="25" viewBox="0 0 25 25" fill="none" xmlns="http://www.w3.org/2000/svg">
<g opacity="0.6">
<path d="M7.02588 6.62256C7.21647 6.61526 7.40339 6.67082 7.55811 6.77979L7.62256 6.83057L7.63428 6.84033L12.353 11.5649L17.0708 6.84717L17.0767 6.84229L17.0825 6.83643C17.2483 6.69453 17.4621 6.62097 17.6802 6.62939L17.7612 6.63623C17.949 6.66134 18.1243 6.74734 18.2593 6.88232L18.314 6.94287C18.4346 7.08877 18.5048 7.27074 18.5122 7.46143C18.5206 7.67954 18.4462 7.89329 18.3042 8.05908L18.2993 8.06494L13.5757 12.7886L18.2944 17.5073L18.3042 17.519C18.4285 17.6642 18.5008 17.8454 18.5112 18.0347L18.5122 18.1157C18.5038 18.3337 18.4135 18.5405 18.2593 18.6948C18.1243 18.8298 17.949 18.9168 17.7612 18.9419L17.6802 18.9487C17.4621 18.9572 17.2483 18.8827 17.0825 18.7407L17.0767 18.7358L12.3521 14.0112L7.62744 18.73C7.55161 18.8154 7.45987 18.8853 7.35693 18.9351C7.27629 18.9741 7.19038 19.0006 7.10205 19.0132L7.01318 19.021C6.92379 19.0244 6.83442 19.0145 6.74854 18.9907L6.66357 18.9624C6.55236 18.9188 6.45116 18.8525 6.3667 18.7681C6.30326 18.7046 6.25043 18.6317 6.20947 18.5522L6.17236 18.4712C6.12884 18.36 6.10916 18.2409 6.11377 18.1216L6.12158 18.0327C6.13418 17.9444 6.1607 17.8585 6.19971 17.7778L6.24268 17.6997C6.28959 17.6238 6.34747 17.5549 6.41553 17.4966L11.1294 12.7876L6.41162 8.06299L6.40576 8.05811L6.40088 8.05225C6.2589 7.88645 6.18445 7.67271 6.19287 7.45459L6.19971 7.37354C6.2248 7.18585 6.31088 7.01047 6.4458 6.87549L6.50635 6.8208C6.65235 6.69993 6.83498 6.62993 7.02588 6.62256Z" fill="#14060B" stroke="#14060B" stroke-width="0.4"/>
</g>
</svg>
