<svg width="25" height="24" viewBox="0 0 25 24" fill="none" xmlns="http://www.w3.org/2000/svg">
<path d="M10.8584 15L10.8584 12" stroke="#FF8458" stroke-width="1.8" stroke-linecap="round"/>
<path d="M14.8584 15L14.8584 12" stroke="#FF8458" stroke-width="1.8" stroke-linecap="round"/>
<path d="M3.8584 7H21.8584V7C20.9265 7 20.4606 7 20.093 7.15224C19.603 7.35523 19.2136 7.74458 19.0106 8.23463C18.8584 8.60218 18.8584 9.06812 18.8584 10V17.2275C18.8584 19.1132 18.8584 20.056 18.2726 20.6418C17.6868 21.2275 16.744 21.2275 14.8584 21.2275H10.8584C8.97278 21.2275 8.02997 21.2275 7.44418 20.6418C6.8584 20.056 6.8584 19.1132 6.8584 17.2275V10C6.8584 9.06812 6.8584 8.60218 6.70616 8.23463C6.50317 7.74458 6.11382 7.35523 5.62377 7.15224C5.25622 7 4.79028 7 3.8584 7V7Z" stroke="#FF8458" stroke-width="1.8" stroke-linecap="round"/>
<path d="M10.9265 3.37059C11.0405 3.26427 11.2916 3.17033 11.6409 3.10332C11.9902 3.03632 12.4181 3 12.8584 3C13.2987 3 13.7266 3.03632 14.0759 3.10332C14.4252 3.17033 14.6763 3.26427 14.7902 3.37059" stroke="#FF8458" stroke-width="1.8" stroke-linecap="round"/>
</svg>
