<svg width="16" height="16" viewBox="0 0 16 16" fill="none" xmlns="http://www.w3.org/2000/svg">
<path d="M14.9375 8.00001H5.67125M2.4005 8.00001H1.0625M2.4005 8.00001C2.4005 7.56638 2.57276 7.15051 2.87938 6.84389C3.186 6.53727 3.60187 6.36501 4.0355 6.36501C4.46913 6.36501 4.885 6.53727 5.19162 6.84389C5.49824 7.15051 5.6705 7.56638 5.6705 8.00001C5.6705 8.43364 5.49824 8.84951 5.19162 9.15613C4.885 9.46275 4.46913 9.63501 4.0355 9.63501C3.60187 9.63501 3.186 9.46275 2.87938 9.15613C2.57276 8.84951 2.4005 8.43364 2.4005 8.00001ZM14.9375 12.9553H10.6265M10.6265 12.9553C10.6265 13.389 10.4538 13.8053 10.1471 14.112C9.84044 14.4187 9.42448 14.591 8.99075 14.591C8.55712 14.591 8.14125 14.418 7.83463 14.1114C7.52801 13.8048 7.35575 13.3889 7.35575 12.9553M10.6265 12.9553C10.6265 12.5215 10.4538 12.1059 10.1471 11.7992C9.84044 11.4926 9.42448 11.3203 8.99075 11.3203C8.55712 11.3203 8.14125 11.4925 7.83463 11.7991C7.52801 12.1058 7.35575 12.5216 7.35575 12.9553M7.35575 12.9553H1.0625M14.9375 3.04476H12.6088M9.338 3.04476H1.0625M9.338 3.04476C9.338 2.61113 9.51026 2.19526 9.81688 1.88864C10.1235 1.58202 10.5394 1.40976 10.973 1.40976C11.1877 1.40976 11.4003 1.45205 11.5987 1.53422C11.7971 1.61638 11.9773 1.73682 12.1291 1.88864C12.2809 2.04046 12.4014 2.2207 12.4835 2.41907C12.5657 2.61744 12.608 2.83005 12.608 3.04476C12.608 3.25947 12.5657 3.47208 12.4835 3.67045C12.4014 3.86881 12.2809 4.04906 12.1291 4.20088C11.9773 4.3527 11.7971 4.47314 11.5987 4.5553C11.4003 4.63747 11.1877 4.67976 10.973 4.67976C10.5394 4.67976 10.1235 4.5075 9.81688 4.20088C9.51026 3.89426 9.338 3.47839 9.338 3.04476Z" stroke="#789096" stroke-width="1.5" stroke-miterlimit="10" stroke-linecap="round"/>
</svg>
