<svg width="20" height="26" viewBox="0 0 20 26" fill="none" xmlns="http://www.w3.org/2000/svg">
<path d="M18.6652 11.9699C18.1483 10.7686 17.397 9.69033 16.4583 8.80264L15.6836 8.06857C15.6573 8.04433 15.6256 8.02712 15.5914 8.01847C15.5571 8.00982 15.5214 8.00998 15.4872 8.01893C15.453 8.02789 15.4215 8.04537 15.3954 8.06985C15.3693 8.09432 15.3494 8.12504 15.3375 8.1593L14.9914 9.18479C14.7758 9.82813 14.3791 10.4852 13.8174 11.1313C13.7801 11.1726 13.7376 11.1835 13.7083 11.1863C13.679 11.189 13.6337 11.1835 13.5938 11.1451C13.5565 11.1121 13.5379 11.0626 13.5406 11.0131C13.6391 9.358 13.1599 7.49121 12.111 5.45946C11.2431 3.77138 10.0372 2.45446 8.53042 1.53619L7.43096 0.868101C7.28721 0.780122 7.10352 0.895594 7.11151 1.0688L7.17007 2.38847C7.21001 3.29025 7.10884 4.08755 6.86925 4.75014C6.57642 5.56119 6.1558 6.3145 5.61805 6.99084C5.24382 7.46087 4.81965 7.88601 4.35354 8.25827C3.23093 9.14951 2.31811 10.2915 1.68342 11.5987C1.05029 12.9173 0.720499 14.3691 0.719727 15.8409C0.719727 17.1386 0.967305 18.395 1.45714 19.58C1.93011 20.7208 2.61266 21.7563 3.46705 22.629C4.32958 23.5087 5.33054 24.2016 6.44597 24.6827C7.60134 25.1831 8.82592 25.436 10.0904 25.436C11.3549 25.436 12.5795 25.1831 13.7349 24.6855C14.8476 24.2071 15.8594 23.5096 16.7138 22.6317C17.5764 21.7519 18.2525 20.7237 18.7237 19.5827C19.2128 18.401 19.4637 17.1288 19.4611 15.8436C19.4611 14.502 19.1949 13.1988 18.6652 11.9699Z" fill="url(#paint0_linear_332_329)"/>
<defs>
<linearGradient id="paint0_linear_332_329" x1="10.0904" y1="0.837891" x2="10.0904" y2="25.436" gradientUnits="userSpaceOnUse">
<stop stop-color="#FDC26F"/>
<stop offset="1" stop-color="#FF9500"/>
</linearGradient>
</defs>
</svg>
