<svg width="92" height="91" viewBox="0 0 92 91" fill="none" xmlns="http://www.w3.org/2000/svg">
<circle cx="46.0918" cy="45.5" r="45.5" fill="#E0FFF8"/>
<path d="M35.068 50.0389L37.5446 47.5623C39.2897 45.8172 40.1629 44.9448 41.1081 44.8651C41.5838 44.825 42.0612 44.9167 42.4879 45.1307C43.3359 45.5558 43.8225 46.6896 44.7946 48.9578L44.8639 49.1199C45.2867 50.1065 45.4982 50.5998 45.8463 50.8152C46.1169 50.9826 46.4393 51.045 46.7526 50.9901C47.1559 50.9193 47.5355 50.5392 48.2946 49.7801L48.4411 49.6336C49.3763 48.6983 49.8444 48.2312 50.3747 48.034C50.9576 47.8173 51.5994 47.8173 52.1823 48.034C52.7125 48.2312 53.1807 48.6984 54.1159 49.6336L55.0905 50.6082C55.9712 51.4889 57.1653 51.9841 58.4108 51.9842V35.369C59.0595 36.9272 59.0592 39.2234 59.0592 42.9061V48.0936C59.0592 52.9842 59.059 55.4297 57.5397 56.949C56.0204 58.4681 53.5753 58.4686 48.6852 58.4686H43.4977C38.6072 58.4686 36.1616 58.4682 34.6422 56.949C33.1229 55.4297 33.1227 52.9842 33.1227 48.0936V42.9061C33.1227 38.0155 33.1229 35.5699 34.6422 34.0506C34.7764 33.9165 34.9184 33.7949 35.068 33.6834V50.0389Z" fill="#FF8458"/>
<path d="M43.498 33.828H48.6855C51.1672 33.828 52.898 33.8312 54.204 34.0067C55.3144 34.156 55.9679 34.413 56.4345 34.7958L56.623 34.9677C57.1015 35.4462 57.4143 36.1179 57.5849 37.3866C57.7605 38.6927 57.7626 40.4242 57.7626 42.9062V48.0937C57.7626 50.5753 57.7605 52.3062 57.5849 53.6122C57.4356 54.7227 57.1777 55.3761 56.7948 55.8427L56.623 56.0312C56.1444 56.5097 55.4728 56.8225 54.204 56.9931C52.898 57.1687 51.1664 57.1708 48.6845 57.1708H43.498C41.016 57.1708 39.2845 57.1687 37.9784 56.9931C36.8684 56.8438 36.2155 56.5856 35.7489 56.203L35.5595 56.0312C35.081 55.5526 34.7691 54.8809 34.5986 53.6122C34.423 52.3061 34.4198 50.5747 34.4198 48.0927V42.9062C34.4198 40.4242 34.423 38.6927 34.5986 37.3866C34.7478 36.2767 35.0051 35.6236 35.3876 35.1571L35.5595 34.9677C36.038 34.4891 36.7097 34.1773 37.9784 34.0067C39.2845 33.8311 41.016 33.828 43.498 33.828Z" stroke="#FF8458" stroke-width="2.59367"/>
<circle cx="49.9818" cy="41.609" r="2.59367" fill="#FF8458"/>
</svg>
