<svg width="21" height="20" viewBox="0 0 21 20" fill="none" xmlns="http://www.w3.org/2000/svg">
<path d="M18.9996 8C18.9996 7.73478 18.8942 7.48043 18.7067 7.29289C18.5192 7.10536 18.2648 7 17.9996 7C17.7344 7 17.48 7.10536 17.2925 7.29289C17.1049 7.48043 16.9996 7.73478 16.9996 8H18.9996ZM4.99959 8C4.99959 7.73478 4.89424 7.48043 4.7067 7.29289C4.51916 7.10536 4.26481 7 3.99959 7C3.73438 7 3.48002 7.10536 3.29249 7.29289C3.10495 7.48043 2.99959 7.73478 2.99959 8H4.99959ZM19.2926 10.707C19.4812 10.8892 19.7338 10.99 19.996 10.9877C20.2582 10.9854 20.509 10.8802 20.6944 10.6948C20.8798 10.5094 20.985 10.2586 20.9873 9.9964C20.9895 9.7342 20.8888 9.4816 20.7066 9.293L19.2926 10.707ZM10.9996 1L11.7066 0.293C11.5191 0.105529 11.2648 0.000213623 10.9996 0.000213623C10.7344 0.000213623 10.4801 0.105529 10.2926 0.293L10.9996 1ZM1.29259 9.293C1.19708 9.38525 1.1209 9.49559 1.06849 9.6176C1.01608 9.7396 0.988496 9.87082 0.987342 10.0036C0.986189 10.1364 1.01149 10.2681 1.06177 10.391C1.11205 10.5139 1.18631 10.6255 1.2802 10.7194C1.37409 10.8133 1.48574 10.8875 1.60864 10.9378C1.73154 10.9881 1.86321 11.0134 1.99599 11.0123C2.12877 11.0111 2.25999 10.9835 2.382 10.9311C2.504 10.8787 2.61435 10.8025 2.70659 10.707L1.29259 9.293ZM5.99959 20H15.9996V18H5.99959V20ZM18.9996 17V8H16.9996V17H18.9996ZM4.99959 17V8H2.99959V17H4.99959ZM20.7066 9.293L11.7066 0.293L10.2926 1.707L19.2926 10.707L20.7066 9.293ZM10.2926 0.293L1.29259 9.293L2.70659 10.707L11.7066 1.707L10.2926 0.293ZM15.9996 20C16.7952 20 17.5583 19.6839 18.1209 19.1213C18.6835 18.5587 18.9996 17.7956 18.9996 17H16.9996C16.9996 17.2652 16.8942 17.5196 16.7067 17.7071C16.5192 17.8946 16.2648 18 15.9996 18V20ZM5.99959 18C5.73438 18 5.48002 17.8946 5.29249 17.7071C5.10495 17.5196 4.99959 17.2652 4.99959 17H2.99959C2.99959 17.7956 3.31566 18.5587 3.87827 19.1213C4.44088 19.6839 5.20394 20 5.99959 20V18Z" fill="#789096"/>
</svg>
