<svg width="33" height="33" viewBox="0 0 33 33" fill="none" xmlns="http://www.w3.org/2000/svg">
<path d="M16.1175 19.2281H14.0092C12.2388 19.2281 11.3536 19.2281 11.0187 18.6526C10.6838 18.0771 11.1211 17.3075 11.9957 15.7682L15.6141 9.39974C16.0483 8.63554 16.2654 8.25344 16.4809 8.3104C16.6965 8.36735 16.6965 8.80682 16.6965 9.68576V13.8492C16.6965 14.1221 16.6965 14.2585 16.7812 14.3433C16.866 14.4281 17.0025 14.4281 17.2754 14.4281H19.3837C21.1541 14.4281 22.0393 14.4281 22.3742 15.0036C22.7091 15.5791 22.2718 16.3488 21.3972 17.8881L17.7788 24.2565C17.3446 25.0207 17.1275 25.4028 16.912 25.3458C16.6965 25.2889 16.6965 24.8494 16.6965 23.9705V19.8071C16.6965 19.5342 16.6965 19.3977 16.6117 19.3129C16.5269 19.2281 16.3904 19.2281 16.1175 19.2281Z" fill="#FFC005"/>
<circle cx="16.6968" cy="16.8281" r="12" stroke="#FFC005" stroke-width="2"/>
</svg>
