<svg width="25" height="24" viewBox="0 0 25 24" fill="none" xmlns="http://www.w3.org/2000/svg">
<path d="M4.8584 13C4.8584 11.1144 4.8584 10.1716 5.44418 9.58579C6.02997 9 6.97278 9 8.8584 9H16.8584C18.744 9 19.6868 9 20.2726 9.58579C20.8584 10.1716 20.8584 11.1144 20.8584 13V15C20.8584 17.8284 20.8584 19.2426 19.9797 20.1213C19.101 21 17.6868 21 14.8584 21H10.8584C8.02997 21 6.61576 21 5.73708 20.1213C4.8584 19.2426 4.8584 17.8284 4.8584 15V13Z" stroke="#FF8458" stroke-width="2"/>
<path d="M16.8584 8V7C16.8584 4.79086 15.0675 3 12.8584 3V3C10.6493 3 8.8584 4.79086 8.8584 7V8" stroke="#FF8458" stroke-width="2" stroke-linecap="round"/>
<circle cx="12.8584" cy="15" r="2" fill="#FF8458"/>
</svg>
