<svg width="25" height="24" viewBox="0 0 25 24" fill="none" xmlns="http://www.w3.org/2000/svg">
<path d="M21.8 15.3C22.0238 15.523 22.2013 15.7879 22.3225 16.0796C22.4436 16.3713 22.5059 16.6841 22.5059 17C22.5059 17.3159 22.4436 17.6286 22.3225 17.9203C22.2013 18.2121 22.0238 18.477 21.8 18.7L19.2 21.3C18.9771 21.5237 18.7121 21.7013 18.4204 21.8224C18.1287 21.9435 17.8159 22.0059 17.5 22.0059C17.1842 22.0059 16.8714 21.9435 16.5797 21.8224C16.288 21.7013 16.023 21.5237 15.8 21.3L3.20005 8.69999C2.7506 8.24836 2.49829 7.63714 2.49829 6.99999C2.49829 6.36283 2.7506 5.75161 3.20005 5.29999L5.80005 2.69999C6.25167 2.25054 6.86289 1.99823 7.50005 1.99823C8.1372 1.99823 8.74842 2.25054 9.20005 2.69999L21.8 15.3Z" stroke="white" stroke-width="2" stroke-linecap="round" stroke-linejoin="round"/>
<path d="M15 12.5L17 10.5" stroke="white" stroke-width="2" stroke-linecap="round" stroke-linejoin="round"/>
<path d="M12 9.5L14 7.5" stroke="white" stroke-width="2" stroke-linecap="round" stroke-linejoin="round"/>
<path d="M9 6.5L11 4.5" stroke="white" stroke-width="2" stroke-linecap="round" stroke-linejoin="round"/>
<path d="M18 15.5L20 13.5" stroke="white" stroke-width="2" stroke-linecap="round" stroke-linejoin="round"/>
</svg>
