<svg width="25" height="24" viewBox="0 0 25 24" fill="none" xmlns="http://www.w3.org/2000/svg">
<path d="M12.2617 3.17871C12.7147 3.03712 13.2062 3.0613 13.6465 3.25L19.5605 5.78418L19.71 5.85645C20.3896 6.21665 20.8035 6.9366 20.7715 7.70508L20.7578 7.87109L20.1445 12.7744C19.9381 14.4255 19.1508 15.9456 17.9297 17.0654L17.6797 17.2842L14.1387 20.2344C13.4434 20.8138 12.4529 20.8507 11.7207 20.3438L11.5781 20.2344L8.03711 17.2842C6.7589 16.219 5.90434 14.7358 5.62109 13.1035L5.57227 12.7744L4.95898 7.87109C4.84843 6.98667 5.33701 6.13528 6.15625 5.78418L12.0703 3.25L12.2617 3.17871Z" stroke="#FF8458" stroke-width="2" stroke-linecap="round"/>
<path d="M9.8584 12L12.4271 14.5687C12.6502 14.7918 13.0217 14.7551 13.1967 14.4925L16.8584 9" stroke="#FF8458" stroke-width="2" stroke-linecap="round"/>
</svg>
