<svg width="44" height="45" viewBox="0 0 44 45" fill="none" xmlns="http://www.w3.org/2000/svg">
<circle cx="22" cy="22.7939" r="22" fill="#E0FFF8"/>
<g clip-path="url(#clip0_348_1467)">
<path d="M26.408 13.2822C27.1928 12.9747 28.0579 12.9454 28.8591 13.1962L29.0183 13.2499C29.8632 13.5573 30.567 14.1629 30.9978 14.9521C31.4285 15.7412 31.5566 16.6602 31.3582 17.537C31.1721 18.3592 30.7108 19.0909 30.0535 19.6132L29.9197 19.7148C29.2366 20.2086 28.4066 20.4537 27.5681 20.4111L27.4001 20.3984C26.5054 20.3119 25.6726 19.9024 25.0583 19.246L24.9792 19.1611L24.8777 19.2167L20.8416 21.4169L20.739 21.4726L20.7673 21.5849C20.9162 22.1771 20.9162 22.7973 20.7673 23.3896L20.739 23.5029L20.8416 23.5585L24.8777 25.7587L24.9792 25.8144L25.0583 25.7294C25.6346 25.1143 26.4029 24.7158 27.2341 24.5976L27.4011 24.5781C28.24 24.4975 29.0793 24.7064 29.781 25.1669L29.9197 25.2626C30.6025 25.7568 31.0942 26.4686 31.3162 27.2783L31.3572 27.4413C31.5428 28.2635 31.4417 29.1226 31.073 29.8769L30.9958 30.0263C30.5917 30.7659 29.9477 31.3437 29.1726 31.666L29.0154 31.7265C28.2231 32.0143 27.358 32.0226 26.5632 31.7519L26.406 31.6933C25.6215 31.3856 24.9669 30.82 24.5496 30.0917L24.4695 29.9433C24.0884 29.2018 23.9692 28.3552 24.1296 27.541L24.1775 27.5673V27.3134L24.0369 27.2949L24.0994 27.1826L20.0642 24.9824L19.9626 24.9267L19.8826 25.0117C19.4397 25.485 18.8813 25.832 18.2644 26.0204L17.9968 26.0917C17.3643 26.2341 16.7067 26.2068 16.0906 26.0156L15.8289 25.9238C15.2258 25.6857 14.6975 25.2937 14.2957 24.789L14.1316 24.5654C13.7148 23.9527 13.492 23.2292 13.4919 22.4882C13.4919 21.8399 13.6623 21.2046 13.9841 20.6454L14.1316 20.4101C14.4962 19.8742 14.9945 19.4452 15.575 19.164L15.8289 19.0527C16.5181 18.7805 17.2738 18.722 17.9968 18.8847C18.7196 19.0475 19.3765 19.4238 19.8826 19.9648L19.9626 20.0497L20.0642 19.9941L24.1003 17.7929L24.2029 17.7382L24.1736 17.6249C23.9675 16.8076 24.0474 15.9458 24.3972 15.1826L24.4714 15.0322C24.857 14.2828 25.486 13.6891 26.2527 13.3476L26.408 13.2822ZM27.7556 26.1816C27.2751 26.1817 26.8117 26.3485 26.4431 26.6503L26.2908 26.788C25.9023 27.1765 25.6844 27.7035 25.6843 28.2529C25.6843 28.8024 25.9022 29.3301 26.2908 29.7187C26.6792 30.1071 27.2063 30.325 27.7556 30.3251C28.2363 30.3251 28.7004 30.1584 29.0691 29.8564L29.2214 29.7187C29.61 29.3301 29.8279 28.8024 29.8279 28.2529C29.8278 27.7723 29.661 27.3089 29.3591 26.9404L29.2214 26.788C28.8329 26.3995 28.3051 26.1816 27.7556 26.1816ZM17.1853 20.416C16.7047 20.416 16.2414 20.5828 15.8728 20.8847L15.7205 21.0224C15.332 21.4109 15.1141 21.9379 15.114 22.4872C15.114 22.968 15.2807 23.432 15.5828 23.8007L15.7205 23.9531C16.1089 24.3415 16.636 24.5594 17.1853 24.5595C17.6661 24.5595 18.1301 24.3928 18.4988 24.0908L18.6501 23.9531C19.0387 23.5645 19.2576 23.0367 19.2576 22.4872C19.2575 22.0065 19.0899 21.5433 18.7878 21.1747L18.6501 21.0224C18.2616 20.634 17.7347 20.416 17.1853 20.416ZM27.7556 14.6503C27.2063 14.6504 26.6792 14.8683 26.2908 15.2568C25.9023 15.6453 25.6844 16.1723 25.6843 16.7216C25.6843 17.2024 25.851 17.6664 26.1531 18.0351L26.2908 18.1865C26.6792 18.5749 27.2063 18.7938 27.7556 18.7939C28.2365 18.7939 28.7004 18.6263 29.0691 18.3242L29.2214 18.1865C29.6097 17.7979 29.8279 17.2709 29.8279 16.7216C29.8278 16.2411 29.661 15.7777 29.3591 15.4091L29.2214 15.2568C28.8329 14.8682 28.3051 14.6503 27.7556 14.6503Z" fill="#FF8458" stroke="#E0FFF8" stroke-width="0.3"/>
</g>
<defs>
<clipPath id="clip0_348_1467">
<rect width="19.2191" height="20.18" fill="white" transform="translate(12.3904 12.7042)"/>
</clipPath>
</defs>
</svg>
