<svg width="20" height="21" viewBox="0 0 20 21" fill="none" xmlns="http://www.w3.org/2000/svg">
<path d="M11.992 15.2037L7.79303 12.9137C7.24483 13.4998 6.53302 13.9074 5.7501 14.0836C4.96719 14.2598 4.14938 14.1965 3.40295 13.9018C2.65652 13.6071 2.01599 13.0947 1.5646 12.4312C1.11321 11.7677 0.871826 10.9837 0.871826 10.1812C0.871826 9.37875 1.11321 8.59481 1.5646 7.9313C2.01599 7.26779 2.65652 6.7554 3.40295 6.46071C4.14938 6.16602 4.96719 6.10266 5.7501 6.27886C6.53302 6.45506 7.24483 6.86268 7.79303 7.44875L11.993 5.15875C11.7549 4.21471 11.8693 3.21625 12.3148 2.35052C12.7602 1.48479 13.5061 0.811234 14.4126 0.456116C15.3191 0.100999 16.324 0.0886992 17.239 0.421523C18.1539 0.754347 18.9161 1.40944 19.3825 2.26401C19.849 3.11858 19.9878 4.11395 19.7729 5.06353C19.558 6.01311 19.0041 6.8517 18.2151 7.42212C17.4261 7.99254 16.4562 8.25561 15.4871 8.16202C14.518 8.06843 13.6163 7.62461 12.951 6.91375L8.75103 9.20375C8.91223 9.84511 8.91223 10.5164 8.75103 11.1577L12.951 13.4477C13.6166 12.7372 14.5185 12.2939 15.4876 12.2008C16.4567 12.1076 17.4266 12.3712 18.2153 12.9419C19.004 13.5127 19.5574 14.3515 19.7719 15.3012C19.9864 16.2509 19.8472 17.2461 19.3803 18.1005C18.9135 18.9548 18.1511 19.6096 17.236 19.942C16.3209 20.2744 15.3161 20.2617 14.4097 19.9062C13.5033 19.5508 12.7577 18.8769 12.3127 18.011C11.8676 17.1452 11.7536 16.1467 11.992 15.2027V15.2037ZM4.87203 12.1807C5.40246 12.1807 5.91117 11.97 6.28625 11.595C6.66132 11.2199 6.87203 10.7112 6.87203 10.1807C6.87203 9.65031 6.66132 9.14161 6.28625 8.76653C5.91117 8.39146 5.40246 8.18075 4.87203 8.18075C4.3416 8.18075 3.83289 8.39146 3.45782 8.76653C3.08275 9.14161 2.87203 9.65031 2.87203 10.1807C2.87203 10.7112 3.08275 11.2199 3.45782 11.595C3.83289 11.97 4.3416 12.1807 4.87203 12.1807ZM15.872 6.18075C16.4025 6.18075 16.9112 5.97003 17.2862 5.59496C17.6613 5.21989 17.872 4.71118 17.872 4.18075C17.872 3.65031 17.6613 3.14161 17.2862 2.76653C16.9112 2.39146 16.4025 2.18075 15.872 2.18075C15.3416 2.18075 14.8329 2.39146 14.4578 2.76653C14.0827 3.14161 13.872 3.65031 13.872 4.18075C13.872 4.71118 14.0827 5.21989 14.4578 5.59496C14.8329 5.97003 15.3416 6.18075 15.872 6.18075ZM15.872 18.1807C16.4025 18.1807 16.9112 17.97 17.2862 17.595C17.6613 17.2199 17.872 16.7112 17.872 16.1807C17.872 15.6503 17.6613 15.1416 17.2862 14.7665C16.9112 14.3915 16.4025 14.1807 15.872 14.1807C15.3416 14.1807 14.8329 14.3915 14.4578 14.7665C14.0827 15.1416 13.872 15.6503 13.872 16.1807C13.872 16.7112 14.0827 17.2199 14.4578 17.595C14.8329 17.97 15.3416 18.1807 15.872 18.1807Z" fill="#FF8458"/>
</svg>
