<svg width="24" height="25" viewBox="0 0 24 25" fill="none" xmlns="http://www.w3.org/2000/svg">
<path d="M22 12.3807L22.502 11.9791L22.8233 12.3807L22.502 12.7823L22 12.3807ZM13 13.0235C12.645 13.0235 12.3571 12.7357 12.3571 12.3807C12.3571 12.0256 12.645 11.7378 13 11.7378V13.0235ZM18 7.38068L18.502 6.97909L22.502 11.9791L22 12.3807L21.498 12.7823L17.498 7.78227L18 7.38068ZM22 12.3807L22.502 12.7823L18.502 17.7823L18 17.3807L17.498 16.9791L21.498 11.9791L22 12.3807ZM22 12.3807V13.0235H13V12.3807V11.7378H22V12.3807Z" fill="white"/>
<path d="M14 8.51261V7.79861C14 6.16622 14 5.35002 13.5219 4.78567C13.0438 4.22132 12.2388 4.08714 10.6286 3.81877L9.04707 3.55519C5.77581 3.00998 4.14018 2.73737 3.07009 3.64387C2 4.55037 2 6.20857 2 9.52495V15.2364C2 18.5528 2 20.211 3.07009 21.1175C4.14018 22.024 5.77581 21.7514 9.04707 21.2062L10.6286 20.9426C12.2388 20.6742 13.0438 20.54 13.5219 19.9757C14 19.4113 14 18.5951 14 16.9627V16.4466" stroke="white" stroke-width="1.28571"/>
</svg>
