<svg width="57" height="57" viewBox="0 0 57 57" fill="none" xmlns="http://www.w3.org/2000/svg">
<path d="M52.3163 28.209L53.4876 27.2719L54.2372 28.209L53.4876 29.146L52.3163 28.209ZM31.3163 29.709C30.4879 29.709 29.8163 29.0374 29.8163 28.209C29.8163 27.3805 30.4879 26.709 31.3163 26.709V29.709ZM42.983 16.5423L44.1543 15.6053L53.4876 27.2719L52.3163 28.209L51.145 29.146L41.8116 17.4793L42.983 16.5423ZM52.3163 28.209L53.4876 29.146L44.1543 40.8127L42.983 39.8756L41.8116 38.9386L51.145 27.2719L52.3163 28.209ZM52.3163 28.209V29.709H31.3163V28.209V26.709H52.3163V28.209Z" fill="#FF8458"/>
<path d="M33.6495 19.1835V17.5175C33.6495 13.7086 33.6495 11.8041 32.534 10.4873C31.4185 9.1705 29.54 8.85741 25.7829 8.23123L22.0927 7.6162C14.4597 6.34404 10.6433 5.70796 8.1464 7.82313C5.64953 9.9383 5.64953 13.8074 5.64953 21.5456V34.8724C5.64953 42.6106 5.64953 46.4797 8.1464 48.5949C10.6433 50.7101 14.4597 50.074 22.0927 48.8018L25.7829 48.1868C29.54 47.5606 31.4185 47.2475 32.534 45.9307C33.6495 44.6139 33.6495 42.7094 33.6495 38.9005V37.6963" stroke="#FF8458" stroke-width="3"/>
</svg>
