<svg width="18" height="18" viewBox="0 0 18 18" fill="none" xmlns="http://www.w3.org/2000/svg">
<path d="M8.99989 14.5459L4.21286 17.4132C4.0722 17.482 3.94164 17.51 3.82119 17.4969C3.70163 17.4829 3.58514 17.4419 3.47173 17.3739C3.35744 17.3041 3.27128 17.2056 3.21326 17.0783C3.15523 16.951 3.14996 16.8119 3.19743 16.661L4.47133 11.2849L0.257958 7.6616C0.139271 7.56568 0.0610263 7.45101 0.0232224 7.31758C-0.0145815 7.18416 -0.00622943 7.05641 0.0482785 6.93432C0.102786 6.81224 0.175317 6.71196 0.265871 6.63347C0.357303 6.5576 0.480386 6.50615 0.635118 6.47912L6.19493 5.99776L8.36294 0.906806C8.42272 0.76292 8.50888 0.659147 8.62141 0.595488C8.73394 0.531829 8.8601 0.5 8.99989 0.5C9.13968 0.5 9.26627 0.531829 9.37969 0.595488C9.4931 0.659147 9.57882 0.76292 9.63684 0.906806L11.8048 5.99776L17.3633 6.47912C17.5189 6.50528 17.6425 6.55717 17.7339 6.63478C17.8253 6.71152 17.8983 6.81137 17.9528 6.93432C18.0064 7.05641 18.0144 7.18416 17.9766 7.31758C17.9387 7.45101 17.8605 7.56568 17.7418 7.6616L13.5284 11.2849L14.8023 16.661C14.8516 16.8101 14.8467 16.9488 14.7878 17.077C14.7289 17.2052 14.6423 17.3037 14.528 17.3726C14.4155 17.4424 14.299 17.4838 14.1786 17.4969C14.059 17.51 13.9289 17.482 13.7882 17.4132L8.99989 14.5459Z" fill="#F9D342"/>
</svg>
