<svg width="25" height="24" viewBox="0 0 25 24" fill="none" xmlns="http://www.w3.org/2000/svg">
<path d="M14.03 3H9.8584C7.97278 3 7.02997 3 6.44418 3.58579C5.8584 4.17157 5.8584 5.11438 5.8584 7V17C5.8584 18.8856 5.8584 19.8284 6.44418 20.4142C7.02997 21 7.97278 21 9.8584 21H15.8584C17.744 21 18.6868 21 19.2726 20.4142C19.8584 19.8284 19.8584 18.8856 19.8584 17V8.82843C19.8584 8.41968 19.8584 8.2153 19.7823 8.03153C19.7062 7.84776 19.5616 7.70324 19.2726 7.41421L15.4442 3.58579C15.1552 3.29676 15.0106 3.15224 14.8269 3.07612C14.6431 3 14.4387 3 14.03 3Z" stroke="#FF8458" stroke-width="1.8"/>
<path d="M9.8584 13L15.8584 13" stroke="#FF8458" stroke-width="1.8" stroke-linecap="round"/>
<path d="M9.8584 17L13.8584 17" stroke="#FF8458" stroke-width="1.8" stroke-linecap="round"/>
<path d="M13.8584 3V7C13.8584 7.94281 13.8584 8.41421 14.1513 8.70711C14.4442 9 14.9156 9 15.8584 9H19.8584" stroke="#FF8458" stroke-width="1.8"/>
</svg>
