<svg width="95" height="74" viewBox="0 0 95 74" fill="none" xmlns="http://www.w3.org/2000/svg">
<circle cx="61.6435" cy="32.768" r="32.5527" fill="#CFFFF4"/>
<path d="M28.6451 34.3601C28.5898 34.1759 28.5622 34.0838 28.5433 34.012C27.8258 31.289 29.823 28.6048 32.6373 28.5095C32.7115 28.507 32.8077 28.507 33 28.507C33.1923 28.507 33.2885 28.507 33.3627 28.5095C36.177 28.6048 38.1742 31.289 37.4567 34.012C37.4378 34.0838 37.4102 34.1759 37.3549 34.3601L34.9667 42.3208C34.8461 42.7229 34.7858 42.924 34.6864 43.086C34.4898 43.4067 34.1771 43.6394 33.8134 43.7355C33.6297 43.7841 33.4198 43.7841 33 43.7841C32.5802 43.7841 32.3703 43.7841 32.1866 43.7355C31.8229 43.6394 31.5102 43.4067 31.3136 43.086C31.2142 42.924 31.1539 42.7229 31.0333 42.3208L28.6451 34.3601Z" fill="#FF312D" stroke="#FF312D" stroke-width="2.92482"/>
<circle cx="32.9998" cy="51.4223" r="3.05542" fill="#FF312D" stroke="#FF312D" stroke-width="2.92482"/>
<circle cx="33" cy="40.7285" r="30" stroke="#FF312D" stroke-width="4.83984"/>
</svg>
