<svg width="37" height="37" viewBox="0 0 37 37" fill="none" xmlns="http://www.w3.org/2000/svg">
<path d="M18.3556 4.71224C21.5801 4.83262 24.3299 6.80172 25.5802 9.58724L25.8546 10.1888C25.9231 10.3334 25.95 10.3784 25.9523 10.3822L26.0792 10.5423C26.1106 10.5752 26.133 10.5921 26.1495 10.6029C26.1828 10.6244 26.2489 10.6577 26.4318 10.6927L26.588 10.7035C26.6778 10.7056 26.8173 10.7064 27.0421 10.7064L27.3126 10.7132C30.0917 10.8541 32.3019 13.152 32.3019 15.9661L32.295 16.2367C32.1587 18.9261 30.0021 21.0827 27.3126 21.2191L27.0421 21.2259H26.0988L24.5792 19.7064H27.0421L27.2345 19.7015C29.2107 19.6013 30.7823 17.9672 30.7823 15.9661L30.7775 15.7738C30.6806 13.8613 29.147 12.3278 27.2345 12.2308L27.0421 12.2259C26.7687 12.2259 26.532 12.2279 26.3331 12.2103L26.1466 12.1849C25.8642 12.1309 25.5862 12.0477 25.3243 11.8783C25.128 11.7511 24.9722 11.5961 24.837 11.4271L24.7081 11.2542C24.6254 11.136 24.5501 10.9839 24.4816 10.8392L24.1945 10.2093C23.1729 7.9334 20.9273 6.329 18.298 6.23079L18.0421 6.22591C15.3888 6.22591 13.092 7.75889 11.9923 9.99056L11.8898 10.2093C11.7713 10.4733 11.6771 10.682 11.6027 10.8392C11.5684 10.9116 11.5329 10.9863 11.4952 11.057L11.3761 11.2542C11.2112 11.4897 11.0216 11.7088 10.7599 11.8783C10.5635 12.0053 10.3581 12.0839 10.1486 12.138L9.93762 12.1849C9.70625 12.2291 9.40659 12.2259 9.04211 12.2259C6.97642 12.2259 5.30188 13.9005 5.30188 15.9661L5.30676 16.1527C5.40073 18.0641 6.92932 19.5983 8.83801 19.7005L9.06165 19.7064H11.505L9.98547 21.2259H9.02258L8.79114 21.2201L8.78137 21.2191H8.77258C6.07972 21.0827 3.92172 18.9222 3.78918 16.2288L3.78235 15.9661C3.78235 13.0613 6.13724 10.7064 9.04211 10.7064C9.49248 10.7064 9.60112 10.7025 9.65247 10.6927L9.84973 10.6429C9.89302 10.6276 9.91811 10.6136 9.93469 10.6029C9.96801 10.5812 10.0254 10.5344 10.132 10.3822L10.2296 10.1888C10.2958 10.0492 10.3827 9.85763 10.504 9.58724L10.629 9.31966C11.975 6.58797 14.788 4.70638 18.0421 4.70638L18.3556 4.71224Z" fill="#FF8458"/>
<path d="M18.042 18.9659L17.3349 18.2588L18.042 17.5517L18.7491 18.2588L18.042 18.9659ZM19.042 32.4659C19.042 33.0182 18.5943 33.4659 18.042 33.4659C17.4897 33.4659 17.042 33.0182 17.042 32.4659L19.042 32.4659ZM12.042 24.9659L11.3349 24.2588L17.3349 18.2588L18.042 18.9659L18.7491 19.673L12.7491 25.673L12.042 24.9659ZM18.042 18.9659L18.7491 18.2588L24.7491 24.2588L24.042 24.9659L23.3349 25.673L17.3349 19.673L18.042 18.9659ZM18.042 18.9659L19.042 18.9659L19.042 32.4659L18.042 32.4659L17.042 32.4659L17.042 18.9659L18.042 18.9659Z" fill="#FF8458"/>
</svg>
