<svg width="25" height="24" viewBox="0 0 25 24" fill="none" xmlns="http://www.w3.org/2000/svg">
<path d="M6.5 20C5.95 20 5.47933 19.8043 5.088 19.413C4.69667 19.0217 4.50067 18.5507 4.5 18V16C4.5 15.7167 4.596 15.4793 4.788 15.288C4.98 15.0967 5.21733 15.0007 5.5 15C5.78267 14.9993 6.02033 15.0953 6.213 15.288C6.40567 15.4807 6.50133 15.718 6.5 16V18H18.5V16C18.5 15.7167 18.596 15.4793 18.788 15.288C18.98 15.0967 19.2173 15.0007 19.5 15C19.7827 14.9993 20.0203 15.0953 20.213 15.288C20.4057 15.4807 20.5013 15.718 20.5 16V18C20.5 18.55 20.3043 19.021 19.913 19.413C19.5217 19.805 19.0507 20.0007 18.5 20H6.5ZM11.5 7.85L9.625 9.725C9.425 9.925 9.18767 10.021 8.913 10.013C8.63833 10.005 8.40067 9.90067 8.2 9.7C8.01667 9.5 7.92067 9.26667 7.912 9C7.90333 8.73334 7.99933 8.5 8.2 8.3L11.8 4.7C11.9 4.6 12.0083 4.52934 12.125 4.488C12.2417 4.44667 12.3667 4.42567 12.5 4.425C12.6333 4.42434 12.7583 4.44534 12.875 4.488C12.9917 4.53067 13.1 4.60134 13.2 4.7L16.8 8.3C17 8.5 17.096 8.73334 17.088 9C17.08 9.26667 16.984 9.5 16.8 9.7C16.6 9.9 16.3627 10.0043 16.088 10.013C15.8133 10.0217 15.5757 9.92567 15.375 9.725L13.5 7.85V15C13.5 15.2833 13.404 15.521 13.212 15.713C13.02 15.905 12.7827 16.0007 12.5 16C12.2173 15.9993 11.98 15.9033 11.788 15.712C11.596 15.5207 11.5 15.2833 11.5 15V7.85Z" fill="white"/>
</svg>
