<svg width="27" height="27" viewBox="0 0 27 27" fill="none" xmlns="http://www.w3.org/2000/svg">
<path d="M11.9787 11.0288C11.9768 11.0222 11.9758 11.0189 11.975 11.0163C11.6307 9.85634 12.4977 8.69105 13.7077 8.68751C13.7104 8.6875 13.7138 8.6875 13.7207 8.6875C13.7276 8.6875 13.731 8.6875 13.7337 8.68751C14.9437 8.69105 15.8107 9.85634 15.4664 11.0163C15.4656 11.0189 15.4646 11.0222 15.4627 11.0287L14.5074 14.213C14.4631 14.3606 14.441 14.4344 14.4063 14.4949C14.3228 14.6402 14.1829 14.7443 14.0197 14.7825C13.9519 14.7983 13.8748 14.7983 13.7207 14.7983C13.5666 14.7983 13.4895 14.7983 13.4217 14.7825C13.2585 14.7443 13.1186 14.6402 13.0352 14.4949C13.0004 14.4344 12.9783 14.3606 12.934 14.213L11.9787 11.0288Z" fill="#FF312D" stroke="#FF312D" stroke-width="1.20864"/>
<circle cx="13.7207" cy="17.8536" r="1.22217" fill="#FF312D" stroke="#FF312D" stroke-width="1.20864"/>
<circle cx="13.7207" cy="13.5762" r="12" stroke="#FF312D" stroke-width="2"/>
</svg>
