<svg width="20" height="20" viewBox="0 0 20 20" fill="none" xmlns="http://www.w3.org/2000/svg">
<path fill-rule="evenodd" clip-rule="evenodd" d="M6.4181 1.25C6.6981 0.66 7.3011 0.25 8.0001 0.25H12.0001C12.6981 0.25 13.3011 0.66 13.5821 1.25C14.2651 1.256 14.7981 1.287 15.2741 1.473C15.8423 1.69527 16.3365 2.07301 16.7001 2.563C17.0671 3.056 17.2391 3.69 17.4761 4.561L17.5131 4.697L18.1031 6.864C18.4965 7.06248 18.8413 7.34518 19.1131 7.692C19.7351 8.489 19.8451 9.438 19.7351 10.526C19.6271 11.582 19.2951 12.912 18.8791 14.577L18.8521 14.682C18.5891 15.735 18.3751 16.59 18.1221 17.257C17.8561 17.953 17.5201 18.523 16.9651 18.956C16.4111 19.389 15.7761 19.576 15.0371 19.666C14.3281 19.75 13.4471 19.75 12.3621 19.75H7.6381C6.5531 19.75 5.6711 19.75 4.9631 19.665C4.2231 19.577 3.5891 19.389 3.0341 18.955C2.4801 18.523 2.1441 17.953 1.8781 17.257C1.6241 16.59 1.4111 15.735 1.1481 14.682L1.1211 14.577C0.705099 12.912 0.372099 11.582 0.265099 10.527C0.155099 9.437 0.265098 8.489 0.886098 7.692C1.1691 7.33 1.5081 7.062 1.8961 6.864L2.4861 4.697L2.5241 4.561C2.7611 3.69 2.9331 3.056 3.3001 2.562C3.66383 2.07238 4.15799 1.695 4.7261 1.473C5.2021 1.287 5.7341 1.255 6.4181 1.25ZM6.4191 2.753C5.7571 2.76 5.4921 2.785 5.2721 2.871C4.96606 2.99068 4.69991 3.19411 4.5041 3.458C4.3281 3.695 4.2241 4.026 3.9341 5.093L3.5801 6.389C4.6181 6.25 5.9581 6.25 7.6221 6.25H12.3771C14.0421 6.25 15.3821 6.25 16.4191 6.389L16.0661 5.092C15.7751 4.025 15.6721 3.694 15.4961 3.457C15.3003 3.19311 15.0341 2.98968 14.7281 2.87C14.5081 2.784 14.2421 2.759 13.5801 2.752C13.438 3.05066 13.2141 3.30293 12.9345 3.47956C12.6548 3.6562 12.3309 3.74996 12.0001 3.75H8.0001C7.66934 3.74996 7.34537 3.6562 7.06573 3.47956C6.78609 3.30293 6.56223 3.05066 6.4201 2.752M8.0001 1.75C7.93379 1.75 7.87021 1.77634 7.82332 1.82322C7.77644 1.87011 7.7501 1.9337 7.7501 2C7.7501 2.0663 7.77644 2.12989 7.82332 2.17678C7.87021 2.22366 7.93379 2.25 8.0001 2.25H12.0001C12.0664 2.25 12.13 2.22366 12.1769 2.17678C12.2238 2.12989 12.2501 2.0663 12.2501 2C12.2501 1.9337 12.2238 1.87011 12.1769 1.82322C12.13 1.77634 12.0664 1.75 12.0001 1.75H8.0001ZM3.7001 7.886C2.7901 8.018 2.3491 8.258 2.0701 8.616C1.7901 8.973 1.6651 9.458 1.7581 10.374C1.8531 11.31 2.1581 12.534 2.5921 14.274C2.8701 15.382 3.0621 16.15 3.2821 16.724C3.4921 17.278 3.6991 17.571 3.9591 17.774C4.2181 17.976 4.5521 18.105 5.1421 18.176C5.7521 18.249 6.5421 18.25 7.6861 18.25H12.3161C13.4591 18.25 14.2511 18.249 14.8601 18.176C15.4501 18.106 15.7841 17.976 16.0431 17.774C16.3031 17.571 16.5091 17.278 16.7211 16.724C16.9391 16.15 17.1321 15.382 17.4091 14.274C17.8441 12.534 18.1491 11.31 18.2431 10.374C18.3371 9.458 18.2111 8.972 17.9321 8.615C17.6531 8.258 17.2121 8.018 16.3011 7.886C15.3711 7.752 14.1091 7.75 12.3161 7.75H7.6861C5.8931 7.75 4.6311 7.752 3.7011 7.886" fill="#789096"/>
</svg>
